<svg width="48" height="48" viewBox="0 0 48 48" fill="none" xmlns="http://www.w3.org/2000/svg">
<g clip-path="url(#clip0_86_1060)">
<rect x="10.9224" y="1" width="37.4287" height="37.4287" rx="18.7144" transform="rotate(15.3729 10.9224 1)" fill="#08979D"/>
<path d="M15.0745 29.2832L17.5999 27.4512L12.8797 20.947L20.2616 17.7701L19.0277 14.9045L9.8553 18.8523C9.6404 18.9447 9.44905 19.0843 9.29542 19.2607C9.14179 19.4372 9.02982 19.6459 8.9678 19.8715C8.90579 20.097 8.89531 20.3337 8.93715 20.5638C8.97899 20.794 9.07208 21.0118 9.20952 21.2011L15.0745 29.2832ZM32.9372 18.7287L30.4118 20.5608L35.1319 27.0649L27.7501 30.2418L28.984 33.1074L38.1564 29.1597C38.3713 29.0672 38.5626 28.9276 38.7162 28.7512C38.8699 28.5748 38.9818 28.366 39.0438 28.1405C39.1059 27.9149 39.1163 27.6783 39.0745 27.4481C39.0327 27.2179 38.9396 27.0001 38.8021 26.8108L32.9372 18.7287ZM32.1125 12.0276L18.6558 37.441L15.8985 35.981L29.3551 10.5675L32.1125 12.0276Z" fill="white"/>
</g>
<rect x="9.17456" y="-2.0733" width="42.4287" height="42.4287" rx="21.2144" transform="rotate(15.3729 9.17456 -2.0733)" stroke="#08979D" stroke-width="5"/>
<defs>
<clipPath id="clip0_86_1060">
<rect x="10.9224" y="1" width="37.4287" height="37.4287" rx="18.7144" transform="rotate(15.3729 10.9224 1)" fill="white"/>
</clipPath>
</defs>
</svg>
