<svg width="52" height="52" viewBox="0 0 52 52" fill="none" xmlns="http://www.w3.org/2000/svg">
<g clip-path="url(#clip0_86_1048)">
<rect x="0.860352" y="13.0398" width="40" height="40" rx="20" transform="rotate(-17.7281 0.860352 13.0398)" fill="#08979D"/>
<path d="M31.5677 8.87084L17.9469 13.2252C16.4446 13.7054 15.6134 15.3178 16.0936 16.8202L17.8354 22.2685L12.387 24.0102C10.8847 24.4905 10.0535 26.1029 10.5337 27.6053L14.8881 41.2261C15.3684 42.7284 16.9807 43.5596 18.4831 43.0793L32.1039 38.725C33.6063 38.2447 34.4375 36.6324 33.9572 35.13L32.2155 29.6817L37.6638 27.94C39.1661 27.4597 39.9973 25.8473 39.5171 24.3449L35.1627 10.7241C34.6825 9.22176 33.0701 8.39056 31.5677 8.87084ZM17.6122 40.3552L13.2579 26.7344L26.8787 22.3801L31.2357 36L17.6122 40.3552ZM36.7929 25.2158L31.3446 26.9575L29.6029 21.5092C29.1226 20.0068 27.5102 19.1756 26.0078 19.6559L20.5595 21.3976L18.8178 15.9493L32.4386 11.595L36.7929 25.2158Z" fill="white"/>
<path d="M16.853 28.5877L25.0255 25.9751L25.8964 28.6993L17.7239 31.3119L16.853 28.5877ZM18.5948 34.036L26.7672 31.4234L27.6381 34.1476L19.4656 36.7602L18.5948 34.036Z" fill="white"/>
</g>
<rect x="-2.28218" y="11.4198" width="45" height="45" rx="22.5" transform="rotate(-17.7281 -2.28218 11.4198)" stroke="#08979D" stroke-width="5"/>
<defs>
<clipPath id="clip0_86_1048">
<rect x="0.860352" y="13.0398" width="40" height="40" rx="20" transform="rotate(-17.7281 0.860352 13.0398)" fill="white"/>
</clipPath>
</defs>
</svg>
