<svg width="45" height="44" viewBox="0 0 45 44" fill="none" xmlns="http://www.w3.org/2000/svg">
<g clip-path="url(#clip0_86_1051)">
<rect x="2.92822" y="9.05096" width="33.2481" height="33.2481" rx="16.624" transform="rotate(-11.0199 2.92822 9.05096)" fill="#8474A1"/>
<path d="M21.3746 24.5388L17.7583 22.1014L16.21 24.3986L22.3412 28.531L28.2835 17.7201L25.8526 16.3842L21.3746 24.5388Z" fill="white"/>
<path d="M29.5589 8.09901L10.5218 11.8063C9.02198 12.0984 8.03978 13.5557 8.33186 15.0555L12.0392 34.0926C12.3313 35.5924 13.7885 36.5746 15.2884 36.2826L34.3254 32.5753C35.8253 32.2832 36.8075 30.8259 36.5154 29.3261L32.8081 10.289C32.516 8.78913 31.0588 7.80693 29.5589 8.09901ZM14.7588 33.563L11.0514 14.5259L30.0885 10.8186L33.7986 29.8551L14.7588 33.563Z" fill="white"/>
</g>
<rect x="-0.00355591" y="7.07494" width="38.2481" height="38.2481" rx="19.124" transform="rotate(-11.0199 -0.00355591 7.07494)" stroke="#8474A1" stroke-width="5"/>
<defs>
<clipPath id="clip0_86_1051">
<rect x="2.92822" y="9.05096" width="33.2481" height="33.2481" rx="16.624" transform="rotate(-11.0199 2.92822 9.05096)" fill="white"/>
</clipPath>
</defs>
</svg>
