<svg width="38" height="39" viewBox="0 0 38 39" fill="none" xmlns="http://www.w3.org/2000/svg">
<g clip-path="url(#clip0_86_1046)">
<rect x="25.7632" y="37.4546" width="27.2374" height="27.2374" rx="13.6187" transform="rotate(-155.337 25.7632 37.4546)" fill="#B383C4"/>
<path d="M10.5155 24.9347C10.5492 25.1121 10.625 25.2789 10.7363 25.4211C10.8477 25.5632 10.9914 25.6767 11.1556 25.7519L24.5633 31.9084C24.7527 31.9952 24.9625 32.0281 25.1694 32.0036C25.3764 31.9791 25.5726 31.8981 25.7365 31.7694C25.9005 31.6408 26.0258 31.4694 26.0989 31.2742C26.1719 31.079 26.1897 30.8675 26.1505 30.6628L24.4626 21.8717L32.2313 17.4227C32.4122 17.319 32.561 17.1675 32.6615 16.9848C32.7619 16.8021 32.8101 16.5953 32.8007 16.387C32.7914 16.1787 32.7248 15.977 32.6083 15.8041C32.4918 15.6311 32.33 15.4936 32.1405 15.4066L18.7328 9.25014C18.5687 9.17468 18.389 9.13958 18.2086 9.14778C18.0282 9.15598 17.8524 9.20723 17.6959 9.29726L9.22403 14.1489C9.01854 14.2661 8.85495 14.4447 8.75624 14.6597C8.65753 14.8746 8.62868 15.1151 8.67374 15.3473L10.5155 24.9347ZM18.3168 11.5567L29.1894 16.5492L22.6317 20.3054C22.4262 20.4226 22.2626 20.6012 22.1639 20.8162C22.0652 21.0311 22.0364 21.2716 22.0814 21.5038L23.5065 28.9255L12.6339 23.9331L11.0549 15.7152L18.3168 11.5567Z" fill="white"/>
</g>
<rect x="26.9919" y="40.7697" width="32.2374" height="32.2374" rx="16.1187" transform="rotate(-155.337 26.9919 40.7697)" stroke="#B383C4" stroke-width="5"/>
<defs>
<clipPath id="clip0_86_1046">
<rect x="25.7632" y="37.4546" width="27.2374" height="27.2374" rx="13.6187" transform="rotate(-155.337 25.7632 37.4546)" fill="white"/>
</clipPath>
</defs>
</svg>
