<svg width="58" height="58" viewBox="0 0 58 58" fill="none" xmlns="http://www.w3.org/2000/svg">
<g clip-path="url(#clip0_86_1054)">
<rect x="18.1133" y="3" width="40" height="40" rx="20" transform="rotate(22.1996 18.1133 3)" fill="#CCABD8"/>
<path d="M38.6246 44.7173L47.0461 24.0808C47.7096 22.4549 46.9269 20.5931 45.301 19.9296L42.353 18.7265L43.556 15.7785L40.6079 14.5754L39.4049 17.5235L30.5606 13.9143L31.7637 10.9662L28.8156 9.76313L27.6125 12.7112L24.6645 11.5081C23.0386 10.8447 21.1768 11.6273 20.5133 13.2532L12.0918 33.8898C11.4284 35.5156 12.211 37.3774 13.8369 38.0409L34.4735 46.4624C36.0993 47.1259 37.9611 46.3432 38.6246 44.7173ZM22.1392 34.5509L19.1911 33.3478L20.3941 30.3997L23.3422 31.6028L22.1392 34.5509ZM24.5453 28.6547L21.5972 27.4516L22.8003 24.5035L25.7484 25.7066L24.5453 28.6547ZM28.0353 36.957L25.0872 35.7539L26.2903 32.8058L29.2384 34.0089L28.0353 36.957ZM30.4415 31.0608L27.4934 29.8578L28.6964 26.9097L31.6445 28.1127L30.4415 31.0608ZM33.9315 39.3631L30.9834 38.1601L32.1865 35.212L35.1346 36.415L33.9315 39.3631ZM36.3376 33.467L33.3895 32.2639L34.5926 29.3158L37.5407 30.5189L36.3376 33.467ZM42.2934 27.2998L21.6568 18.8784L22.8599 15.9303L43.4964 24.3517L42.2934 27.2998Z" fill="white"/>
</g>
<rect x="15.8298" y="-2.43211" width="48.3333" height="48.3333" rx="24.1667" transform="rotate(22.1996 15.8298 -2.43211)" stroke="#CCABD8" stroke-width="8.33333"/>
<defs>
<clipPath id="clip0_86_1054">
<rect x="18.1133" y="3" width="40" height="40" rx="20" transform="rotate(22.1996 18.1133 3)" fill="white"/>
</clipPath>
</defs>
</svg>
