<svg width="40" height="40" viewBox="0 0 40 40" fill="none" xmlns="http://www.w3.org/2000/svg">
<path d="M36.5469 19.345C36.2102 18.5317 35.4886 18.3367 35.0002 18.29V13.3333C35.0002 11.495 33.5052 10 31.6669 10H21.6669V7.68334C22.1752 7.22668 22.5002 6.57001 22.5002 5.83334C22.5002 5.1703 22.2368 4.53442 21.768 4.06558C21.2992 3.59674 20.6633 3.33334 20.0002 3.33334C19.3372 3.33334 18.7013 3.59674 18.2325 4.06558C17.7636 4.53442 17.5002 5.1703 17.5002 5.83334C17.5002 6.57001 17.8252 7.22668 18.3336 7.68334V10H8.33356C6.49523 10 5.00023 11.495 5.00023 13.3333V18.3283L4.86356 18.3383C4.44352 18.3687 4.05052 18.5569 3.76359 18.8651C3.47666 19.1734 3.31706 19.5789 3.31689 20V23.3333C3.31689 23.7754 3.49249 24.1993 3.80505 24.5119C4.11761 24.8244 4.54153 25 4.98356 25H5.00023V33.3333C5.00023 35.1717 6.49523 36.6667 8.33356 36.6667H31.6669C33.5052 36.6667 35.0002 35.1717 35.0002 33.3333V25C35.4423 25 35.8662 24.8244 36.1787 24.5119C36.4913 24.1993 36.6669 23.7754 36.6669 23.3333V20.1033C36.6861 19.8447 36.645 19.5851 36.5469 19.345ZM8.33356 33.3333V13.3333H31.6669L31.6686 19.9933L31.6669 20V23.3333L31.6686 23.3417L31.6702 33.3333H8.33356Z" fill="white"/>
<path d="M14.1665 23.3333C15.5472 23.3333 16.6665 21.8409 16.6665 20C16.6665 18.159 15.5472 16.6667 14.1665 16.6667C12.7858 16.6667 11.6665 18.159 11.6665 20C11.6665 21.8409 12.7858 23.3333 14.1665 23.3333Z" fill="white"/>
<path d="M25.8335 23.3333C27.2142 23.3333 28.3335 21.8409 28.3335 20C28.3335 18.159 27.2142 16.6667 25.8335 16.6667C24.4528 16.6667 23.3335 18.159 23.3335 20C23.3335 21.8409 24.4528 23.3333 25.8335 23.3333Z" fill="white"/>
<path d="M13.3335 26.6667H26.6668V30H13.3335V26.6667Z" fill="white"/>
</svg>
