<svg width="40" height="40" viewBox="0 0 40 40" fill="none" xmlns="http://www.w3.org/2000/svg">
<path d="M29.8249 5.92167C29.6863 5.64473 29.4734 5.41184 29.2099 5.24906C28.9465 5.08629 28.6429 5.00005 28.3332 5H11.6666C11.0349 5 10.4582 5.35667 10.1749 5.92167L3.50822 19.255C3.39236 19.4866 3.33203 19.7419 3.33203 20.0008C3.33203 20.2598 3.39236 20.5151 3.50822 20.7467L10.1749 34.08C10.4582 34.6433 11.0349 35 11.6666 35H28.3332C28.9649 35 29.5416 34.6433 29.8249 34.0783L36.4916 20.745C36.6074 20.5134 36.6677 20.2581 36.6677 19.9992C36.6677 19.7402 36.6074 19.4849 36.4916 19.2533L29.8249 5.92167ZM32.3032 18.3333H19.3632L14.3632 8.33333H27.3032L32.3032 18.3333ZM6.86322 20L11.6666 10.3933L16.4699 20L11.6666 29.6067L6.86322 20ZM27.3032 31.6667H14.3632L19.3632 21.6667H32.3032L27.3032 31.6667Z" fill="white"/>
</svg>
