<svg width="40" height="40" viewBox="0 0 40 40" fill="none" xmlns="http://www.w3.org/2000/svg">
<path d="M33.3335 5H11.6668C9.8285 5 8.3335 6.495 8.3335 8.33333V11.6667H6.66683C4.8285 11.6667 3.3335 13.1617 3.3335 15V31.6667C3.3335 33.505 4.8285 35 6.66683 35H16.6668C18.5052 35 20.0002 33.505 20.0002 31.6667H33.3335C35.1718 31.6667 36.6668 30.1717 36.6668 28.3333V8.33333C36.6668 6.495 35.1718 5 33.3335 5ZM16.6618 31.6667H6.66683V15H16.6668L16.6618 31.6667ZM33.3285 28.3333H20.0002V15C20.0002 13.1617 18.5052 11.6667 16.6668 11.6667H11.6668V8.33333H33.3335L33.3285 28.3333Z" fill="white"/>
</svg>
