<svg width="40" height="40" viewBox="0 0 40 40" fill="none" xmlns="http://www.w3.org/2000/svg">
<g clip-path="url(#clip0_87_1105)">
<path d="M12.6333 6.79999L10.25 4.41666C6.24997 7.46666 3.61663 12.1667 3.3833 17.5H6.71663C6.96663 13.0833 9.2333 9.21666 12.6333 6.79999ZM33.2833 17.5H36.6166C36.3666 12.1667 33.7333 7.46666 29.75 4.41666L27.3833 6.79999C30.75 9.21666 33.0333 13.0833 33.2833 17.5ZM30 18.3333C30 13.2167 27.2666 8.93332 22.5 7.79999V6.66666C22.5 5.28332 21.3833 4.16666 20 4.16666C18.6166 4.16666 17.5 5.28332 17.5 6.66666V7.79999C12.7166 8.93332 9.99997 13.2 9.99997 18.3333V26.6667L6.66663 30V31.6667H33.3333V30L30 26.6667V18.3333ZM20 36.6667C20.2333 36.6667 20.45 36.65 20.6666 36.6C21.75 36.3667 22.6333 35.6333 23.0666 34.6333C23.2333 34.2333 23.3166 33.8 23.3166 33.3333H16.65C16.6666 35.1667 18.15 36.6667 20 36.6667Z" fill="white"/>
</g>
<defs>
<clipPath id="clip0_87_1105">
<rect width="40" height="40" fill="white"/>
</clipPath>
</defs>
</svg>
