<svg width="40" height="40" viewBox="0 0 40 40" fill="none" xmlns="http://www.w3.org/2000/svg">
<path d="M18.3336 23.3333V28.165L18.3186 28.1633C17.2529 27.9457 16.2408 27.5198 15.3402 26.91C14.0033 26.0026 12.9555 24.7298 12.3219 23.2433C12.1086 22.74 11.9452 22.215 11.8369 21.68C11.6119 20.5702 11.6119 19.4265 11.8369 18.3167C12.1637 16.7217 12.9526 15.2582 14.1052 14.1083L11.7519 11.7483C10.688 12.812 9.83862 14.0704 9.25022 15.455C8.95127 16.1611 8.72348 16.8953 8.57022 17.6467C8.25524 19.1969 8.25524 20.7947 8.57022 22.345C8.72411 23.0969 8.95246 23.8317 9.25189 24.5383C10.1354 26.6208 11.602 28.4035 13.4752 29.6717C14.7383 30.5252 16.1569 31.1221 17.6502 31.4283C17.8752 31.475 18.1052 31.5 18.3336 31.5333V36.6667L25.0002 30L18.3336 23.3333ZM21.6669 16.6667V11.835L21.6802 11.8367C23.8165 12.2721 25.6954 13.5313 26.9102 15.3417C27.5205 16.242 27.9465 17.2542 28.1636 18.32C28.3886 19.4293 28.3886 20.5724 28.1636 21.6817C27.9459 22.7473 27.52 23.7594 26.9102 24.66C26.611 25.1023 26.2706 25.5153 25.8936 25.8933L28.2502 28.25C29.3139 27.1858 30.1626 25.9268 30.7502 24.5417C31.0502 23.835 31.2786 23.0967 31.4302 22.35C31.7454 20.8003 31.7454 19.203 31.4302 17.6533C30.8102 14.6658 29.0493 12.0379 26.5219 10.3283C25.2598 9.47565 23.8423 8.87935 22.3502 8.57334C22.1252 8.52834 21.8952 8.50167 21.6669 8.46834V3.33334L15.0002 10L21.6669 16.6667Z" fill="white"/>
</svg>
