<svg width="57" height="40" viewBox="0 0 57 40" fill="none" xmlns="http://www.w3.org/2000/svg">
<path opacity="0.5" d="M38.5455 20.3637C41.0558 20.3637 43.0909 18.3286 43.0909 15.8182C43.0909 13.3078 41.0558 11.2728 38.5455 11.2728C36.0351 11.2728 34 13.3078 34 15.8182C34 18.3286 36.0351 20.3637 38.5455 20.3637Z" stroke="white" stroke-width="4"/>
<path d="M38.5456 35.5152C46.9135 35.5152 53.6971 28.7316 53.6971 20.3636C53.6971 11.9957 46.9135 5.21212 38.5456 5.21212C30.1776 5.21212 23.394 11.9957 23.394 20.3636C23.394 28.7316 30.1776 35.5152 38.5456 35.5152Z" stroke="white" stroke-width="4"/>
<path opacity="0.5" d="M47.5899 32.4849C47.3488 28.1038 46.0074 24.9091 38.5456 24.9091C31.084 24.9091 29.7426 28.1038 29.5015 32.4849" stroke="white" stroke-width="4" stroke-linecap="round"/>
<circle cx="19.9999" cy="20" r="16.3636" fill="#383560"/>
<circle cx="19.9999" cy="20" r="16.3636" fill="#D9D9D9" fill-opacity="0.1"/>
<path opacity="0.5" d="M20 20C22.7614 20 25 17.7615 25 15C25 12.2386 22.7614 10 20 10C17.2386 10 15 12.2386 15 15C15 17.7615 17.2386 20 20 20Z" stroke="white" stroke-width="4"/>
<path d="M20.0002 36.6667C29.2049 36.6667 36.6668 29.2048 36.6668 20C36.6668 10.7953 29.2049 3.33334 20.0002 3.33334C10.7954 3.33334 3.3335 10.7953 3.3335 20C3.3335 29.2048 10.7954 36.6667 20.0002 36.6667Z" stroke="white" stroke-width="4"/>
<path opacity="0.5" d="M29.9485 33.3334C29.6833 28.5142 28.2078 25 19.9998 25C11.792 25 10.3165 28.5142 10.0513 33.3334" stroke="white" stroke-width="4" stroke-linecap="round"/>
</svg>
