<svg width="30" height="30" viewBox="0 0 30 30" fill="none" xmlns="http://www.w3.org/2000/svg">
<path d="M14.8075 20.9774C15.1572 20.9774 15.4502 20.8592 15.6867 20.6227C15.9233 20.3862 16.0415 20.0931 16.0415 19.7435C16.0415 19.3938 15.9233 19.1008 15.6867 18.8643C15.4502 18.6278 15.1572 18.5095 14.8075 18.5095C14.4579 18.5095 14.1649 18.6278 13.9283 18.8643C13.6918 19.1008 13.5736 19.3938 13.5736 19.7435C13.5736 20.0931 13.6918 20.3862 13.9283 20.6227C14.1649 20.8592 14.4579 20.9774 14.8075 20.9774ZM13.5736 16.0416H16.0415V8.63778H13.5736V16.0416ZM14.8075 27.1473C13.1006 27.1473 11.4964 26.8233 9.99508 26.1755C8.49376 25.5277 7.18781 24.6485 6.07724 23.5379C4.96668 22.4273 4.08747 21.1214 3.43964 19.6201C2.79181 18.1187 2.4679 16.5146 2.4679 14.8076C2.4679 13.1006 2.79181 11.4965 3.43964 9.99514C4.08747 8.49382 4.96668 7.18787 6.07724 6.0773C7.18781 4.96674 8.49376 4.08754 9.99508 3.4397C11.4964 2.79187 13.1006 2.46796 14.8075 2.46796C16.5145 2.46796 18.1187 2.79187 19.62 3.4397C21.1213 4.08754 22.4273 4.96674 23.5379 6.0773C24.6484 7.18787 25.5276 8.49382 26.1755 9.99514C26.8233 11.4965 27.1472 13.1006 27.1472 14.8076C27.1472 16.5146 26.8233 18.1187 26.1755 19.6201C25.5276 21.1214 24.6484 22.4273 23.5379 23.5379C22.4273 24.6485 21.1213 25.5277 19.62 26.1755C18.1187 26.8233 16.5145 27.1473 14.8075 27.1473ZM14.8075 24.6793C17.5634 24.6793 19.8977 23.723 21.8103 21.8104C23.7229 19.8977 24.6793 17.5635 24.6793 14.8076C24.6793 12.0518 23.7229 9.7175 21.8103 7.80486C19.8977 5.89221 17.5634 4.93589 14.8075 4.93589C12.0517 4.93589 9.71744 5.89221 7.8048 7.80486C5.89215 9.7175 4.93583 12.0518 4.93583 14.8076C4.93583 17.5635 5.89215 19.8977 7.8048 21.8104C9.71744 23.723 12.0517 24.6793 14.8075 24.6793Z" fill="#58917A"/>
</svg>
