<svg width="41" height="52" viewBox="0 0 41 52" fill="none" xmlns="http://www.w3.org/2000/svg">
<path d="M0.531006 51.0262V23.0932C0.531006 22.7609 0.800428 22.4914 1.13278 22.4914H24.7623L24.7666 22.4914C24.8513 22.4904 40.9691 22.3198 40.9691 37.0603C40.9691 51.8007 24.8518 51.629 24.7666 51.628L24.7623 51.628H1.13278C0.800427 51.628 0.531006 51.3586 0.531006 51.0262Z" fill="#8474A1"/>
<path d="M25.6842 23.3274V20.6064C25.6842 20.4747 25.7268 20.3476 25.8038 20.2407C26.1791 19.7199 27.309 18.0677 27.309 17.0512C27.309 15.8323 26.3341 13.6991 21.7846 13.6991C17.2351 13.6991 16.2603 16.137 16.2603 17.0512C16.2603 17.828 17.4335 19.7051 17.786 20.2516C17.8504 20.3514 17.8851 20.4667 17.8851 20.5855V23.3274C17.8851 23.6598 18.1545 23.9292 18.4868 23.9292H22.0604H25.0824C25.4148 23.9292 25.6842 23.6598 25.6842 23.3274Z" fill="#8474A1"/>
<path d="M0.531006 28.5666V1.24054C0.531006 0.908191 0.800427 0.638769 1.13278 0.638769H22.9535L22.958 0.638764C23.0476 0.637662 37.9513 0.476141 37.9513 14.9041C37.9513 29.3319 23.0481 29.1694 22.958 29.1683L22.9535 29.1683H18.775C18.4427 29.1683 18.1732 29.4377 18.1732 29.7701V31.2594C18.1732 31.3842 18.2115 31.5051 18.2811 31.6087C18.6244 32.1193 19.6683 33.7553 19.6683 34.761C19.6683 35.9646 18.7713 38.0708 14.585 38.0708C10.3987 38.0708 9.50163 35.6637 9.50163 34.761C9.50163 33.992 10.5868 32.1311 10.9081 31.5969C10.9659 31.5008 10.9967 31.3918 10.9967 31.2796V29.7701C10.9967 29.4377 10.7273 29.1683 10.395 29.1683H1.13278C0.800427 29.1683 0.531006 28.8989 0.531006 28.5666Z" fill="#CCABD8" fill-opacity="0.77"/>
</svg>
