<svg width="218" height="148" viewBox="0 0 218 148" fill="none" xmlns="http://www.w3.org/2000/svg">
<path d="M0 118.029V71.6108C0 71.0585 0.447716 70.6108 1 70.6108H40.2667L40.2738 70.6108C40.4146 70.6091 67.1986 70.3255 67.1986 94.8209C67.1986 119.316 40.4154 119.031 40.2738 119.029L40.2667 119.029H1C0.447715 119.029 0 118.581 0 118.029Z" fill="#8474A1"/>
<path d="M41.7988 72V67.4783C41.7988 67.2594 41.8695 67.0482 41.9975 66.8706C42.6213 66.0051 44.4989 63.2595 44.4989 61.5704C44.4989 59.5448 42.8788 56 35.3186 56C27.7585 56 26.1384 60.0512 26.1384 61.5704C26.1384 62.8613 28.088 65.9805 28.6739 66.8887C28.7809 67.0546 28.8385 67.2461 28.8385 67.4435V72C28.8385 72.5523 29.2862 73 29.8385 73H35.777H40.7988C41.3511 73 41.7988 72.5523 41.7988 72Z" fill="#8474A1"/>
<path d="M0 80.7062V35.2968C0 34.7445 0.447717 34.2968 1 34.2968H37.2609L37.2684 34.2968C37.4173 34.295 62.1838 34.0266 62.1838 58.0025C62.1838 81.9781 37.4182 81.7081 37.2684 81.7063L37.2608 81.7062H30.3172C29.7649 81.7062 29.3172 82.154 29.3172 82.7062V85.1812C29.3172 85.3886 29.3809 85.5894 29.4966 85.7615C30.0669 86.6101 31.8017 89.3288 31.8017 91C31.8017 93 30.311 96.5 23.3544 96.5C16.3978 96.5 14.9071 92.5 14.9071 91C14.9071 89.7221 16.7103 86.6297 17.2443 85.742C17.3404 85.5822 17.3916 85.4012 17.3916 85.2147V82.7062C17.3916 82.154 16.9439 81.7062 16.3916 81.7062H1C0.447715 81.7062 0 81.2585 0 80.7062Z" fill="#CCABD8" fill-opacity="0.77"/>
<path d="M85.5008 116.384C84.6475 116.384 84.0501 116.085 83.7088 115.488C83.3675 114.891 83.1968 114.251 83.1968 113.568C83.2821 112.117 83.6235 111.307 84.2208 111.136C84.8181 110.965 85.5435 110.88 86.3968 110.88C89.1275 110.88 91.0475 110.411 92.1568 109.472C93.2661 108.448 93.9488 107.211 94.2048 105.76C94.5461 104.224 94.7168 102.645 94.7168 101.024V85.024C94.7168 84.4267 94.2475 83.0613 93.3088 80.928C92.4555 78.7093 91.3035 76.1493 89.8528 73.248C88.4875 70.3467 87.0368 67.36 85.5008 64.288C83.9648 61.216 82.5141 58.4427 81.1488 55.968C79.8688 53.408 78.8448 51.4453 78.0768 50.08C76.2848 46.8373 74.3221 44.5333 72.1888 43.168C70.0555 41.7173 67.6235 40.6933 64.8928 40.096C63.6981 39.84 62.8448 39.6267 62.3328 39.456C61.9061 39.2853 61.6928 38.5173 61.6928 37.152C61.6928 35.7013 62.2048 34.9333 63.2288 34.848C64.2528 34.6773 65.4475 34.592 66.8128 34.592C72.8715 34.592 77.7355 35.5307 81.4048 37.408C85.1595 39.2853 88.4875 42.784 91.3888 47.904C93.8635 52.512 96.0821 56.992 98.0448 61.344C100.093 65.696 102.354 70.1333 104.829 74.656H105.213L119.421 46.624C120.871 43.7227 121.042 41.9733 119.933 41.376C118.823 40.6933 116.775 40.352 113.789 40.352C112.935 40.352 112.21 40.2667 111.613 40.096C111.015 39.9253 110.674 39.1147 110.589 37.664C110.589 36.9813 110.759 36.3413 111.101 35.744C111.442 35.1467 111.997 34.848 112.765 34.848C115.495 34.9333 117.842 35.0187 119.805 35.104C121.853 35.1893 124.157 35.232 126.717 35.232C129.277 35.232 131.367 35.1893 132.989 35.104C134.695 35.0187 136.914 34.9333 139.645 34.848C140.498 34.848 141.095 35.1467 141.437 35.744C141.778 36.3413 141.949 36.9813 141.949 37.664C141.863 39.1147 141.522 39.9253 140.925 40.096C140.413 40.2667 139.687 40.352 138.749 40.352C135.506 40.352 132.861 41.0773 130.813 42.528C128.765 43.8933 126.93 46.0693 125.309 49.056L110.845 76.32C110.077 77.9413 109.437 79.3067 108.925 80.416C108.413 81.5253 108.029 82.6773 107.773 83.872C107.517 85.0667 107.389 86.6453 107.389 88.608V101.024C107.474 102.645 107.645 104.224 107.901 105.76C108.157 107.211 108.839 108.448 109.949 109.472C111.143 110.411 113.063 110.88 115.709 110.88C116.647 110.88 117.373 110.965 117.885 111.136C118.482 111.307 118.823 112.117 118.909 113.568C118.909 114.251 118.738 114.891 118.397 115.488C118.055 116.085 117.501 116.384 116.733 116.384C114.002 116.213 111.399 116.085 108.925 116C106.45 116 103.933 116 101.373 116C96.3381 116 91.0475 116.128 85.5008 116.384ZM146.986 116.384C146.218 116.384 145.62 116.085 145.194 115.488C144.852 114.891 144.682 114.251 144.682 113.568C144.767 112.117 145.108 111.307 145.706 111.136C146.388 110.965 147.156 110.88 148.01 110.88C150.74 110.88 152.66 110.411 153.77 109.472C154.879 108.448 155.562 107.211 155.818 105.76C156.159 104.224 156.33 102.645 156.33 101.024V50.208C156.33 48.5867 156.159 47.0507 155.818 45.6C155.562 44.064 154.879 42.8267 153.77 41.888C152.66 40.864 150.74 40.352 148.01 40.352C147.156 40.352 146.388 40.2667 145.706 40.096C145.108 39.9253 144.767 39.1147 144.682 37.664C144.682 36.9813 144.852 36.3413 145.194 35.744C145.62 35.1467 146.218 34.848 146.986 34.848C149.716 34.9333 152.319 35.0187 154.794 35.104C157.268 35.1893 159.786 35.232 162.346 35.232H181.546C183.167 35.232 185.258 35.36 187.818 35.616C190.463 35.872 193.236 36.384 196.138 37.152C199.124 37.92 201.94 39.1573 204.586 40.864C207.231 42.5707 209.364 44.832 210.986 47.648C212.692 50.464 213.546 54.0053 213.546 58.272C213.546 62.2827 212.607 65.9093 210.73 69.152C208.938 72.3947 206.506 75.168 203.434 77.472C200.447 79.776 197.034 81.568 193.194 82.848C189.439 84.0427 185.599 84.64 181.674 84.64C179.796 84.64 177.748 84.512 175.53 84.256C173.311 84 171.092 83.4453 168.874 82.592V101.024C168.959 102.645 169.13 104.224 169.386 105.76C169.642 107.211 170.324 108.448 171.434 109.472C172.628 110.411 174.548 110.88 177.194 110.88C178.132 110.88 178.9 110.965 179.498 111.136C180.095 111.307 180.436 112.117 180.522 113.568C180.522 114.251 180.308 114.891 179.882 115.488C179.54 116.085 178.986 116.384 178.218 116.384C172.756 116.128 167.423 116 162.218 116C159.658 116 157.14 116 154.666 116C152.276 116.085 149.716 116.213 146.986 116.384ZM177.962 78.88C179.924 78.88 182.1 78.5813 184.49 77.984C186.964 77.3013 189.311 76.2347 191.53 74.784C193.834 73.248 195.711 71.2 197.162 68.64C198.612 65.9947 199.338 62.6667 199.338 58.656C199.338 54.304 198.484 50.8907 196.778 48.416C195.071 45.856 192.938 43.9787 190.378 42.784C187.903 41.5893 185.428 40.8213 182.954 40.48C180.479 40.1387 178.474 39.968 176.938 39.968C174.89 39.968 173.268 40.1813 172.074 40.608C170.879 41.0347 170.026 41.9733 169.514 43.424C169.087 44.7893 168.874 46.9227 168.874 49.824V77.472C169.727 77.8133 170.964 78.1547 172.586 78.496C174.207 78.752 175.999 78.88 177.962 78.88Z" fill="#8474A1"/>
</svg>
