<svg width="293" height="62" viewBox="0 0 293 62" fill="none" xmlns="http://www.w3.org/2000/svg">
<path d="M30.7006 56.0768C29.8444 56.7246 28.1147 56.8217 27.0384 56.8128C26.603 56.8093 26.2882 57.2411 26.4769 57.6335C26.7132 58.1249 27.055 58.7576 27.483 59.3385C28.5903 60.8412 29.776 61.358 31.62 61.2023C35.0201 60.915 38.238 57.6711 35.9868 54.213C35.4295 53.3569 34.1303 53.4264 33.6455 53.4859C33.5231 53.5009 33.414 53.5613 33.3284 53.6501C32.927 54.0661 31.6772 55.3379 30.7006 56.0768Z" fill="#54969A"/>
<path d="M22.1967 55.6109C22.8119 56.2215 23.8904 56.8164 24.4175 57.0882C24.6068 57.1858 24.7365 57.374 24.7473 57.5867C24.8662 59.9312 24.1633 60.6835 21.737 60.9693C19.2428 61.263 18.3863 60.5609 16.9105 58.8725C14.7112 56.3564 17.312 53.1964 19.9255 52.6485C20.1805 52.5951 20.4266 52.7453 20.5366 52.9813C20.8384 53.6286 21.4862 54.9057 22.1967 55.6109Z" fill="#54969A"/>
<path d="M16.9105 52.5822C15.3891 53.3842 14.1678 53.6057 12.5436 53.0481C10.158 52.2292 8.4133 49.4783 8.63643 46.9908C8.87482 44.3331 10.3209 42.4883 12.5436 41.1664C13.7151 40.4697 14.2837 40.079 15.5315 40.0015C17.1466 39.9012 18.5194 40.4675 19.4387 41.3994C21.7846 43.7773 21.1359 46.9308 19.6685 49.5535C18.8851 50.9536 18.3193 51.8395 16.9105 52.5822Z" fill="#54969A"/>
<path d="M10.0154 41.1664C9.09762 42.3292 7.91722 44.1132 7.4552 44.8217C7.333 45.0091 7.11759 45.1131 6.89613 45.0814C6.45273 45.018 5.69725 44.8851 5.18889 44.661C3.37611 43.8622 2.45633 42.6428 1.97119 40.7004C1.17039 37.4942 2.97602 34.9709 6.10827 34.1772C7.02764 33.9442 8.86617 33.9442 9.78557 34.6431C10.705 35.342 12.5436 38.2386 12.5436 39.0696C12.5436 39.9007 10.9348 40.0015 10.0154 41.1664Z" fill="#54969A"/>
<path d="M14.3823 37.9047C12.3138 36.7399 11.8541 35.342 11.3944 34.6431C10.9348 33.9442 9.69534 30.8448 10.4751 28.5857C11.2726 26.275 13.463 24.8581 15.0718 24.3922C16.6806 23.9262 17.6 23.9262 18.979 24.3922C20.358 24.8581 20.5348 25.6784 21.2774 26.7219C22.1465 27.9434 22.5601 28.7473 22.8862 30.2166C23.2211 31.7256 23.3734 32.7114 22.8862 34.1772C22.3759 35.7123 21.0475 36.9728 20.358 37.4388C19.6685 37.9047 16.4508 39.0696 14.3823 37.9047Z" fill="#54969A"/>
<path d="M23.3459 26.9549C22.7803 25.9037 21.1807 24.2613 21.0205 23.8091C20.9906 23.7247 21.0826 23.6641 21.1537 23.6097C21.6583 23.2241 23.881 21.6528 26.1039 22.0624C28.6321 22.5284 29.0917 23.4602 29.7812 24.858L29.7813 24.8581C30.4708 26.256 30.7006 28.3528 30.7006 29.9836C30.7006 31.1083 30.2634 32.4546 29.992 33.182C29.8806 33.4804 29.5473 33.6204 29.248 33.5113C28.8121 33.3524 28.1918 33.1367 27.7128 33.0123C27.0429 32.8382 26.1325 32.948 25.4933 33.0688C25.105 33.1422 24.7269 32.8515 24.7207 32.4564C24.696 30.8797 24.5252 29.1466 23.3459 26.9549Z" fill="#54969A"/>
<path d="M32.3095 31.3814C32.3095 30.4495 32.5392 28.3528 32.3095 27.6538C32.1946 27.3044 31.9073 26.6054 31.6487 25.9938C31.4546 25.5349 31.8701 25.0566 32.3463 25.2032C33.542 25.5716 35.3055 26.176 35.9868 26.7219C37.2563 27.739 38.1161 28.5853 38.2852 30.2166C38.5039 32.327 37.5908 34.5189 35.5272 34.8761C34.4328 35.0655 33.2179 35.178 32.7691 34.1772C32.3204 33.1763 32.3095 32.3133 32.3095 31.3814Z" fill="#54969A"/>
<path d="M21.737 39.0696C21.9124 37.6134 22.6563 36.5069 23.5757 35.808C24.4951 35.109 25.6299 34.8761 27.0232 34.8761C28.4166 34.8761 29.4493 34.8474 30.4708 35.808C31.1482 36.4451 31.3901 37.4388 31.62 37.9047C31.8498 38.3707 32.5267 39.8825 32.3095 41.1664C31.9589 43.2381 28.4828 44.6807 27.9985 44.8723C27.9602 44.8874 27.923 44.897 27.8821 44.9025C27.5322 44.9494 25.7465 45.1569 24.7249 44.661C23.8022 44.2132 22.8733 42.886 22.6892 42.6135C22.6668 42.5803 22.6424 42.5506 22.6195 42.5178C22.3755 42.1681 21.5775 40.3939 21.737 39.0696Z" fill="#54969A"/>
<path d="M27.9426 46.9908C28.6977 46.8676 30.1214 46.1478 30.7925 45.7919C31.0143 45.6743 31.2882 45.7017 31.4695 45.8753C33.0542 47.3917 33.4681 48.9717 32.7691 51.1843C32.1604 53.1115 30.0237 54.5276 28.1724 54.9119C24.5132 55.6716 22.356 53.662 22.1967 50.0195C22.1328 48.5585 22.2449 47.5611 22.6298 46.338C22.7482 45.9614 23.2042 45.8248 23.5421 46.0289C23.7069 46.1285 23.8808 46.2247 24.0354 46.2919C25.4379 46.9011 26.4361 47.2365 27.9426 46.9908Z" fill="#54969A"/>
<path d="M35.0676 49.0876C35.0676 48.8003 34.8056 47.3624 34.6045 46.3014C34.5131 45.8188 35.0257 45.4108 35.5 45.5382C36.0356 45.6821 36.6615 45.7687 37.136 45.5929C37.7502 45.3654 38.4095 44.7935 38.8638 44.3427C39.1545 44.0542 39.6565 44.096 39.8807 44.4387C40.0243 44.6583 40.189 44.9016 40.3538 45.127C40.9631 45.9604 41.0433 46.9908 41.0433 48.3886C41.0433 49.7865 40.6357 52.4989 37.5958 52.5822C36.8421 52.6028 35.7717 52.3906 35.1377 52.2456C34.8367 52.1768 34.6496 51.8835 34.7021 51.5793C34.8366 50.8014 35.0676 49.4178 35.0676 49.0876Z" fill="#54969A"/>
<path d="M35.9868 44.1951C35.3453 44.3421 34.4587 44.0963 33.9238 43.9094C33.6514 43.8142 33.5091 43.5253 33.5693 43.2431C33.7292 42.4945 33.9974 41.0378 33.9184 40.0015C33.8469 39.0646 33.5618 38.0687 33.3278 37.3808C33.1877 36.9689 33.498 36.5199 33.933 36.5189C34.1534 36.5184 34.3881 36.5152 34.6079 36.5069C35.3151 36.4804 36.3632 36.0449 36.9424 35.7787C37.1929 35.6637 37.4919 35.7232 37.6559 35.9447C37.9218 36.3036 38.3051 36.8754 38.515 37.4388C39.0543 38.8857 39.0802 39.9627 38.515 41.3994C37.9739 42.7751 37.412 43.8684 35.9868 44.1951Z" fill="#54969A"/>
<path d="M38.8343 34.4066C38.9481 34.1126 39.1631 33.5798 39.4344 33.0123C39.5542 32.7618 39.6116 32.3252 39.639 31.9667C39.6638 31.6427 39.9253 31.38 40.2489 31.4101C40.7724 31.4589 41.5231 31.5899 41.9626 31.9406C42.4479 32.3279 42.6648 32.659 42.8819 33.2452C43.3902 34.6179 41.6107 36.2726 40.6699 37.0274C40.388 37.2536 39.9809 37.1489 39.821 36.8248L38.8569 34.8701C38.7854 34.7251 38.7759 34.5574 38.8343 34.4066Z" fill="#54969A"/>
<path d="M39.9424 41.6394C40.0731 40.936 40.1097 39.9135 40.1199 39.3959C40.1239 39.1924 40.2276 39.004 40.399 38.8941C40.9209 38.5596 42.0184 37.8483 42.1925 37.6718C42.8414 37.014 43.687 39.1471 43.8013 39.5356C44.3372 41.3567 43.3416 43.0302 42.1925 43.4962C41.2636 43.8728 40.3347 42.575 40.0127 42.0636C39.9333 41.9376 39.9152 41.7858 39.9424 41.6394Z" fill="#54969A"/>
<path d="M9.32597 53.0481C8.68043 52.3066 8.17611 50.9902 7.80303 49.9574C7.65596 49.5503 7.17639 49.472 6.97843 49.857C6.7143 50.3707 6.48014 50.9852 6.33804 51.4173C6.1082 52.1162 5.64857 53.5141 7.25738 55.3779C7.96909 56.2024 10.3435 57.0316 11.3944 56.7757C11.8906 56.6549 12.6332 56.2176 13.2631 55.7847C13.6979 55.486 13.4879 54.9003 12.964 54.8395C11.6046 54.6818 10.348 54.2221 9.32597 53.0481Z" fill="#54969A"/>
<path d="M0.291694 6.44962C0.646955 5.35993 1.45325 4.16113 2.15015 4.16113C2.84706 4.16113 6.99217 7.29576 9.81622 9.6535C12.9483 12.2684 13.7655 13.0862 15.624 15.3747C17.4824 17.6632 18.4116 21.5536 18.4116 22.469C18.4116 23.3844 15.97 18.8452 13.7655 16.519C11.7613 14.4042 9.60858 12.1961 5.93043 10.5963C5.88866 10.5782 5.846 10.5651 5.8012 10.5569C5.20324 10.4473 0.725182 9.60751 0.291694 8.96695C-0.172915 8.28041 -0.0134595 7.38561 0.291694 6.44962Z" fill="#045A5C"/>
<path d="M24.7178 2.77987C24.1587 1.51376 23.6393 0.762611 23.3443 0.391942C23.1986 0.208914 22.9525 0.160261 22.7385 0.254538C22.1692 0.505207 20.9847 1.05312 19.7278 1.79294C18.6816 2.40874 17.3828 3.3291 16.9074 3.8464C15.6358 5.2301 15.0563 5.98234 14.6981 8.13659C14.3399 10.2908 14.8152 12.1232 15.6263 13.6276C16.2487 14.7821 17.5478 16.5317 18.1184 17.2831C18.2822 17.4987 18.5706 17.5712 18.8159 17.4565C19.9609 16.921 23.1547 15.3258 24.5857 13.5715C26.346 11.4134 26.5794 10.2218 26.4713 8.61313C26.3633 7.00447 25.5779 4.72756 24.7178 2.77987Z" fill="#86B6A3"/>
<path d="M81.4743 50.4834H79.4588C79.1292 50.4834 78.9644 50.3313 78.9644 50.0271L79.0024 47.4031C76.7714 49.6341 73.7926 50.7496 70.0658 50.7496C66.3644 50.7496 63.2715 49.4566 60.787 46.8707C58.3025 44.2848 57.0602 40.8876 57.0602 36.6792C57.0602 33.8651 57.6813 31.3933 58.9236 29.2637C60.1912 27.1341 61.7884 25.5496 63.7151 24.5102C65.6672 23.4708 67.7715 22.951 70.0278 22.951C73.9067 22.951 76.6954 24.1553 78.394 26.5637L78.356 23.6356C78.3052 23.3313 78.4574 23.1792 78.8123 23.1792H80.9419C81.2714 23.1792 81.4362 23.3313 81.4362 23.6356V31.4693C81.4362 31.7736 81.2714 31.9257 80.9419 31.9257H78.5461C78.2419 31.9257 78.0898 31.7736 78.0898 31.4693V31.013C78.0898 29.8975 77.3165 28.7947 75.77 27.7046C74.2489 26.6144 72.2968 26.0694 69.9137 26.0694C67.5306 26.0694 65.3757 27.0581 63.4489 29.0355C61.5475 30.9877 60.5968 33.6116 60.5968 36.9074C60.5968 40.1778 61.5602 42.7764 63.487 44.7031C65.4137 46.6045 67.5686 47.5552 69.9517 47.5552C72.3348 47.5552 74.2109 47.175 75.5799 46.4144C76.9743 45.6538 78.0137 44.7538 78.6982 43.7144V40.7482H71.625C71.3208 40.7482 71.1686 40.5834 71.1686 40.2538V38.5045C71.1686 38.2003 71.3208 38.0482 71.625 38.0482H81.4743C81.7785 38.0482 81.9306 38.2003 81.9306 38.5045V50.0271C81.9306 50.3313 81.7785 50.4834 81.4743 50.4834ZM93.2187 50.4834H85.9553C85.6258 50.4834 85.461 50.3313 85.461 50.0271V48.3919C85.461 48.0876 85.6258 47.9355 85.9553 47.9355H88.0469V34.3215H85.9553C85.6258 34.3215 85.461 34.1693 85.461 33.8651V32.2299C85.461 31.9257 85.6258 31.7736 85.9553 31.7736H90.4046C90.7342 31.7736 90.899 31.9257 90.899 32.2299V36.9834H91.0131C91.0891 36.5778 91.3553 36.02 91.8117 35.3102C92.268 34.6003 92.7624 34.0172 93.2948 33.5609C93.8525 33.0792 94.6384 32.6482 95.6525 32.2679C96.6919 31.8877 97.8581 31.6975 99.1511 31.6975C99.4807 31.6975 99.6455 31.8623 99.6455 32.1919V34.2074C99.6455 34.5369 99.4807 34.7017 99.1511 34.7017H98.3525C96.1722 34.7017 94.4356 35.3989 93.1426 36.7933C91.8497 38.1876 91.2032 39.7721 91.2032 41.5468V47.9355H93.2187C93.5483 47.9355 93.7131 48.0876 93.7131 48.3919V50.0271C93.7131 50.3313 93.5483 50.4834 93.2187 50.4834ZM117.795 41.5088H104.105C104.207 43.613 104.866 45.2355 106.083 46.3764C107.325 47.5172 108.719 48.0876 110.266 48.0876C111.812 48.0876 113.13 47.7581 114.221 47.0989C115.336 46.4397 116.084 45.7933 116.464 45.1595C116.667 44.9059 116.895 44.8679 117.149 45.0454L118.176 46.0721C118.328 46.2243 118.404 46.3637 118.404 46.4904C118.404 46.5919 118.34 46.7313 118.214 46.9088C118.112 47.0862 117.884 47.3651 117.529 47.7454C117.174 48.1257 116.667 48.5566 116.008 49.0383C115.374 49.52 114.538 49.9257 113.498 50.2552C112.484 50.5848 111.394 50.7496 110.228 50.7496C107.566 50.7496 105.335 49.8749 103.535 48.1257C101.76 46.3764 100.873 44.0313 100.873 41.0905C100.873 38.1243 101.76 35.7919 103.535 34.0933C105.309 32.3693 107.477 31.5074 110.038 31.5074C112.623 31.5074 114.652 32.344 116.122 34.0172C117.592 35.6651 118.328 37.8961 118.328 40.7102C118.328 40.8116 118.328 40.913 118.328 41.0144C118.328 41.344 118.15 41.5088 117.795 41.5088ZM115.171 39.189C115.095 37.6172 114.601 36.3623 113.688 35.4243C112.776 34.4862 111.559 34.0172 110.038 34.0172C108.516 34.0172 107.211 34.4482 106.121 35.3102C105.03 36.1722 104.384 37.4651 104.181 39.189H115.171ZM138.258 41.5088H124.568C124.669 43.613 125.328 45.2355 126.545 46.3764C127.787 47.5172 129.182 48.0876 130.728 48.0876C132.275 48.0876 133.593 47.7581 134.683 47.0989C135.799 46.4397 136.546 45.7933 136.927 45.1595C137.129 44.9059 137.358 44.8679 137.611 45.0454L138.638 46.0721C138.79 46.2243 138.866 46.3637 138.866 46.4904C138.866 46.5919 138.803 46.7313 138.676 46.9088C138.575 47.0862 138.346 47.3651 137.991 47.7454C137.637 48.1257 137.129 48.5566 136.47 49.0383C135.837 49.52 135 49.9257 133.96 50.2552C132.946 50.5848 131.856 50.7496 130.69 50.7496C128.028 50.7496 125.797 49.8749 123.997 48.1257C122.222 46.3764 121.335 44.0313 121.335 41.0905C121.335 38.1243 122.222 35.7919 123.997 34.0933C125.772 32.3693 127.939 31.5074 130.5 31.5074C133.086 31.5074 135.114 32.344 136.584 34.0172C138.055 35.6651 138.79 37.8961 138.79 40.7102C138.79 40.8116 138.79 40.913 138.79 41.0144C138.79 41.344 138.613 41.5088 138.258 41.5088ZM135.634 39.189C135.558 37.6172 135.063 36.3623 134.151 35.4243C133.238 34.4862 132.021 34.0172 130.5 34.0172C128.979 34.0172 127.673 34.4482 126.583 35.3102C125.493 36.1722 124.846 37.4651 124.644 39.189H135.634ZM162.028 50.4834H158.416C157.326 50.4834 156.781 49.951 156.781 48.8862V38.8848C156.781 37.4144 156.426 36.2736 155.716 35.4623C155.006 34.651 153.967 34.2454 152.598 34.2454C150.645 34.2454 149.124 35.044 148.034 36.6412C147.907 36.7933 147.743 37.0722 147.54 37.4778V47.9355H149.555C149.885 47.9355 150.05 48.0876 150.05 48.3919V50.0271C150.05 50.3313 149.885 50.4834 149.555 50.4834H142.292C141.962 50.4834 141.798 50.3313 141.798 50.0271V48.3919C141.798 48.0876 141.962 47.9355 142.292 47.9355H144.383V34.3215H142.292C141.962 34.3215 141.798 34.1693 141.798 33.8651V32.2299C141.798 31.9257 141.962 31.7736 142.292 31.7736H146.741C147.071 31.7736 147.236 31.9257 147.236 32.2299L147.159 34.8158H147.274C148.592 32.6102 150.633 31.5074 153.396 31.5074C155.424 31.5074 157.009 32.1031 158.15 33.2947C159.29 34.4862 159.874 36.0961 159.899 38.1243V47.9355H162.028C162.358 47.9355 162.523 48.0876 162.523 48.3919V50.0271C162.523 50.3313 162.358 50.4834 162.028 50.4834ZM178.054 50.4834H165.771C165.442 50.4834 165.277 50.3313 165.277 50.0271V48.0876C165.277 47.7834 165.442 47.6313 165.771 47.6313H168.661V26.0313H165.771C165.442 26.0313 165.277 25.8792 165.277 25.575V23.6356C165.277 23.3313 165.442 23.1792 165.771 23.1792H178.016C180.552 23.1792 182.516 23.851 183.911 25.1947C185.33 26.5384 186.04 28.3003 186.04 30.4806C186.04 33.0412 184.912 34.9553 182.656 36.2229C185.901 37.1609 187.523 39.3158 187.523 42.6876C187.523 45.0707 186.725 46.9721 185.128 48.3919C183.556 49.7862 181.198 50.4834 178.054 50.4834ZM171.97 47.6313H177.788C179.791 47.6313 181.35 47.213 182.466 46.3764C183.606 45.5144 184.177 44.1961 184.177 42.4214C184.177 39.2524 182.123 37.6679 178.016 37.6679H171.97V47.6313ZM171.97 35.1581H177.788C179.106 35.1327 180.247 34.7524 181.211 34.0172C182.199 33.282 182.694 32.1285 182.694 30.5567C182.694 28.9848 182.174 27.844 181.135 27.1341C180.121 26.3989 178.866 26.0313 177.37 26.0313H171.97V35.1581ZM207.704 41.5088H194.013C194.115 43.613 194.774 45.2355 195.991 46.3764C197.233 47.5172 198.627 48.0876 200.174 48.0876C201.72 48.0876 203.039 47.7581 204.129 47.0989C205.244 46.4397 205.992 45.7933 206.373 45.1595C206.575 44.9059 206.804 44.8679 207.057 45.0454L208.084 46.0721C208.236 46.2243 208.312 46.3637 208.312 46.4904C208.312 46.5919 208.249 46.7313 208.122 46.9088C208.02 47.0862 207.792 47.3651 207.437 47.7454C207.082 48.1257 206.575 48.5566 205.916 49.0383C205.282 49.52 204.446 49.9257 203.406 50.2552C202.392 50.5848 201.302 50.7496 200.136 50.7496C197.474 50.7496 195.243 49.8749 193.443 48.1257C191.668 46.3764 190.781 44.0313 190.781 41.0905C190.781 38.1243 191.668 35.7919 193.443 34.0933C195.218 32.3693 197.385 31.5074 199.946 31.5074C202.532 31.5074 204.56 32.344 206.03 34.0172C207.501 35.6651 208.236 37.8961 208.236 40.7102C208.236 40.8116 208.236 40.913 208.236 41.0144C208.236 41.344 208.058 41.5088 207.704 41.5088ZM205.08 39.189C205.004 37.6172 204.509 36.3623 203.596 35.4243C202.684 34.4862 201.467 34.0172 199.946 34.0172C198.425 34.0172 197.119 34.4482 196.029 35.3102C194.939 36.1722 194.292 37.4651 194.089 39.189H205.08ZM219.001 50.4834H211.738C211.408 50.4834 211.243 50.3313 211.243 50.0271V48.3919C211.243 48.0876 211.408 47.9355 211.738 47.9355H213.829V34.3215H211.738C211.408 34.3215 211.243 34.1693 211.243 33.8651V32.2299C211.243 31.9257 211.408 31.7736 211.738 31.7736H216.187C216.517 31.7736 216.681 31.9257 216.681 32.2299V36.9834H216.795C216.872 36.5778 217.138 36.02 217.594 35.3102C218.05 34.6003 218.545 34.0172 219.077 33.5609C219.635 33.0792 220.421 32.6482 221.435 32.2679C222.474 31.8877 223.641 31.6975 224.934 31.6975C225.263 31.6975 225.428 31.8623 225.428 32.1919V34.2074C225.428 34.5369 225.263 34.7017 224.934 34.7017H224.135C221.955 34.7017 220.218 35.3989 218.925 36.7933C217.632 38.1876 216.986 39.7721 216.986 41.5468V47.9355H219.001C219.331 47.9355 219.495 48.0876 219.495 48.3919V50.0271C219.495 50.3313 219.331 50.4834 219.001 50.4834ZM235.007 50.4834H227.744C227.414 50.4834 227.249 50.3313 227.249 50.0271V48.3919C227.249 48.0876 227.414 47.9355 227.744 47.9355H229.835V34.3215H227.744C227.414 34.3215 227.249 34.1693 227.249 33.8651V32.2299C227.249 31.9257 227.414 31.7736 227.744 31.7736H232.193C232.523 31.7736 232.687 31.9257 232.687 32.2299V36.9834H232.801C232.878 36.5778 233.144 36.02 233.6 35.3102C234.056 34.6003 234.551 34.0172 235.083 33.5609C235.641 33.0792 236.427 32.6482 237.441 32.2679C238.48 31.8877 239.647 31.6975 240.939 31.6975C241.269 31.6975 241.434 31.8623 241.434 32.1919V34.2074C241.434 34.5369 241.269 34.7017 240.939 34.7017H240.141C237.961 34.7017 236.224 35.3989 234.931 36.7933C233.638 38.1876 232.992 39.7721 232.992 41.5468V47.9355H235.007C235.337 47.9355 235.501 48.0876 235.501 48.3919V50.0271C235.501 50.3313 235.337 50.4834 235.007 50.4834ZM251.013 50.4834H243.75C243.42 50.4834 243.255 50.3313 243.255 50.0271V48.3919C243.255 48.0876 243.42 47.9355 243.75 47.9355H245.841V34.3215H243.75C243.42 34.3215 243.255 34.1693 243.255 33.8651V32.2299C243.255 31.9257 243.42 31.7736 243.75 31.7736H248.541C248.845 31.7736 248.998 31.9257 248.998 32.2299V47.9355H251.013C251.343 47.9355 251.507 48.0876 251.507 48.3919V50.0271C251.507 50.3313 251.343 50.4834 251.013 50.4834ZM248.845 26.1454C249.276 26.5764 249.492 27.0834 249.492 27.6665C249.492 28.2496 249.276 28.744 248.845 29.1496C248.44 29.5553 247.945 29.7581 247.362 29.7581C246.779 29.7581 246.272 29.5553 245.841 29.1496C245.436 28.744 245.233 28.2496 245.233 27.6665C245.233 27.0834 245.436 26.5764 245.841 26.1454C246.272 25.7144 246.779 25.4989 247.362 25.4989C247.945 25.4989 248.44 25.7144 248.845 26.1454ZM270.873 41.5088H257.183C257.285 43.613 257.944 45.2355 259.161 46.3764C260.403 47.5172 261.797 48.0876 263.344 48.0876C264.89 48.0876 266.208 47.7581 267.299 47.0989C268.414 46.4397 269.162 45.7933 269.542 45.1595C269.745 44.9059 269.973 44.8679 270.227 45.0454L271.254 46.0721C271.406 46.2243 271.482 46.3637 271.482 46.4904C271.482 46.5919 271.418 46.7313 271.292 46.9088C271.19 47.0862 270.962 47.3651 270.607 47.7454C270.252 48.1257 269.745 48.5566 269.086 49.0383C268.452 49.52 267.615 49.9257 266.576 50.2552C265.562 50.5848 264.472 50.7496 263.306 50.7496C260.644 50.7496 258.413 49.8749 256.613 48.1257C254.838 46.3764 253.951 44.0313 253.951 41.0905C253.951 38.1243 254.838 35.7919 256.613 34.0933C258.387 32.3693 260.555 31.5074 263.116 31.5074C265.701 31.5074 267.73 32.344 269.2 34.0172C270.67 35.6651 271.406 37.8961 271.406 40.7102C271.406 40.8116 271.406 40.913 271.406 41.0144C271.406 41.344 271.228 41.5088 270.873 41.5088ZM268.249 39.189C268.173 37.6172 267.679 36.3623 266.766 35.4243C265.854 34.4862 264.637 34.0172 263.116 34.0172C261.594 34.0172 260.289 34.4482 259.199 35.3102C258.108 36.1722 257.462 37.4651 257.259 39.189H268.249ZM282.855 50.7496C281.157 50.7496 279.8 50.4327 278.786 49.7989C277.772 49.1651 277.138 48.5693 276.885 48.0116H276.809C276.86 49.2538 276.885 49.913 276.885 49.989C276.885 50.3186 276.707 50.4834 276.353 50.4834H275.06C274.73 50.4834 274.565 50.3186 274.565 49.989V44.2848C274.565 43.9552 274.73 43.7905 275.06 43.7905H276.543C276.898 43.7905 277.075 43.9552 277.075 44.2848V45.0454C277.329 45.8059 277.861 46.5031 278.672 47.1369C279.636 47.8975 280.84 48.2778 282.285 48.2778C285.124 48.2778 286.544 47.289 286.544 45.3116C286.544 44.6271 286.151 44.082 285.365 43.6764C284.579 43.2454 283.616 42.8905 282.475 42.6116C281.36 42.3327 280.244 42.0158 279.129 41.6609C278.013 41.3059 277.062 40.7355 276.276 39.9496C275.491 39.1383 275.098 38.1243 275.098 36.9074C275.098 35.2595 275.693 33.9538 276.885 32.9905C278.076 32.0017 279.598 31.5074 281.448 31.5074C283.958 31.5074 285.758 32.2426 286.848 33.713H286.924C286.874 32.8003 286.848 32.3313 286.848 32.306C286.848 31.9764 287.013 31.8116 287.343 31.8116H288.56C288.889 31.8116 289.054 31.9764 289.054 32.306V37.5919C289.054 37.9214 288.889 38.0862 288.56 38.0862H287.076C286.722 38.0862 286.544 37.9214 286.544 37.5919V37.0595C286.544 36.375 286.138 35.7031 285.327 35.044C284.541 34.3595 283.515 34.0172 282.247 34.0172C280.979 34.0172 279.991 34.2834 279.281 34.8158C278.571 35.3482 278.216 36.0454 278.216 36.9074C278.216 37.744 278.609 38.4031 279.395 38.8848C280.206 39.3412 281.182 39.7088 282.323 39.9876C283.464 40.2412 284.605 40.5327 285.745 40.8623C286.886 41.1919 287.85 41.7369 288.636 42.4975C289.447 43.2581 289.853 44.3102 289.853 45.6538C289.853 46.9975 289.269 48.189 288.103 49.2285C286.962 50.2426 285.213 50.7496 282.855 50.7496Z" fill="#86B6A3"/>
</svg>
