<svg width="282" height="62" viewBox="0 0 282 62" fill="none" xmlns="http://www.w3.org/2000/svg">
<path d="M112.148 34.5373C112.629 34.6133 113.066 34.8096 113.459 35.1263C113.864 35.4429 114.181 35.8356 114.409 36.3043C114.649 36.7729 114.77 37.2733 114.77 37.8053C114.77 38.4766 114.599 39.0846 114.257 39.6293C113.915 40.1613 113.414 40.5856 112.756 40.9023C112.11 41.2063 111.343 41.3583 110.457 41.3583H105.517V28.1153H110.267C111.166 28.1153 111.932 28.2673 112.566 28.5713C113.199 28.8626 113.674 29.2616 113.991 29.7683C114.307 30.2749 114.466 30.8449 114.466 31.4783C114.466 32.2636 114.25 32.9159 113.82 33.4353C113.402 33.9419 112.844 34.3093 112.148 34.5373ZM107.246 33.8343H110.153C110.963 33.8343 111.59 33.6443 112.034 33.2643C112.477 32.8843 112.699 32.3586 112.699 31.6873C112.699 31.0159 112.477 30.4903 112.034 30.1103C111.59 29.7303 110.951 29.5403 110.115 29.5403H107.246V33.8343ZM110.305 39.9333C111.166 39.9333 111.837 39.7306 112.319 39.3253C112.8 38.9199 113.041 38.3563 113.041 37.6343C113.041 36.8996 112.787 36.3233 112.281 35.9053C111.774 35.4746 111.096 35.2593 110.248 35.2593H107.246V39.9333H110.305ZM126.403 30.9463V41.3583H124.674V39.8193C124.345 40.3513 123.882 40.7693 123.287 41.0733C122.704 41.3646 122.058 41.5103 121.349 41.5103C120.538 41.5103 119.81 41.3456 119.164 41.0163C118.518 40.6743 118.005 40.1676 117.625 39.4963C117.258 38.8249 117.074 38.0079 117.074 37.0453V30.9463H118.784V36.8173C118.784 37.8433 119.044 38.6349 119.563 39.1923C120.082 39.7369 120.792 40.0093 121.691 40.0093C122.616 40.0093 123.344 39.7243 123.876 39.1543C124.408 38.5843 124.674 37.7546 124.674 36.6653V30.9463H126.403ZM130.215 29.2553C129.886 29.2553 129.607 29.1413 129.379 28.9133C129.151 28.6853 129.037 28.4066 129.037 28.0773C129.037 27.7479 129.151 27.4693 129.379 27.2413C129.607 27.0133 129.886 26.8993 130.215 26.8993C130.532 26.8993 130.798 27.0133 131.013 27.2413C131.241 27.4693 131.355 27.7479 131.355 28.0773C131.355 28.4066 131.241 28.6853 131.013 28.9133C130.798 29.1413 130.532 29.2553 130.215 29.2553ZM131.051 30.9463V41.3583H129.322V30.9463H131.051ZM135.727 27.2983V41.3583H133.998V27.2983H135.727ZM138.028 36.1143C138.028 35.0503 138.243 34.1193 138.674 33.3213C139.105 32.5106 139.694 31.8836 140.441 31.4403C141.201 30.9969 142.05 30.7753 142.987 30.7753C143.798 30.7753 144.551 30.9653 145.248 31.3453C145.945 31.7126 146.477 32.2003 146.844 32.8083V27.2983H148.592V41.3583H146.844V39.4013C146.502 40.0219 145.995 40.5349 145.324 40.9403C144.653 41.3329 143.867 41.5293 142.968 41.5293C142.043 41.5293 141.201 41.3013 140.441 40.8453C139.694 40.3893 139.105 39.7496 138.674 38.9263C138.243 38.1029 138.028 37.1656 138.028 36.1143ZM146.844 36.1333C146.844 35.3479 146.686 34.6639 146.369 34.0813C146.052 33.4986 145.622 33.0553 145.077 32.7513C144.545 32.4346 143.956 32.2763 143.31 32.2763C142.664 32.2763 142.075 32.4283 141.543 32.7323C141.011 33.0363 140.587 33.4796 140.27 34.0623C139.953 34.6449 139.795 35.3289 139.795 36.1143C139.795 36.9123 139.953 37.6089 140.27 38.2043C140.587 38.7869 141.011 39.2366 141.543 39.5533C142.075 39.8573 142.664 40.0093 143.31 40.0093C143.956 40.0093 144.545 39.8573 145.077 39.5533C145.622 39.2366 146.052 38.7869 146.369 38.2043C146.686 37.6089 146.844 36.9186 146.844 36.1333ZM165.851 28.1153L161.538 36.3613V41.3583H159.809V36.3613L155.477 28.1153H157.396L160.664 34.8223L163.932 28.1153H165.851ZM172.216 41.5293C171.241 41.5293 170.354 41.3076 169.556 40.8643C168.771 40.4209 168.15 39.7939 167.694 38.9833C167.251 38.1599 167.029 37.2099 167.029 36.1333C167.029 35.0693 167.257 34.1319 167.713 33.3213C168.182 32.4979 168.815 31.8709 169.613 31.4403C170.411 30.9969 171.304 30.7753 172.292 30.7753C173.28 30.7753 174.173 30.9969 174.971 31.4403C175.769 31.8709 176.396 32.4916 176.852 33.3023C177.321 34.1129 177.555 35.0566 177.555 36.1333C177.555 37.2099 177.314 38.1599 176.833 38.9833C176.364 39.7939 175.725 40.4209 174.914 40.8643C174.103 41.3076 173.204 41.5293 172.216 41.5293ZM172.216 40.0093C172.837 40.0093 173.419 39.8636 173.964 39.5723C174.509 39.2809 174.946 38.8439 175.275 38.2613C175.617 37.6786 175.788 36.9693 175.788 36.1333C175.788 35.2973 175.623 34.5879 175.294 34.0053C174.965 33.4226 174.534 32.9919 174.002 32.7133C173.47 32.4219 172.894 32.2763 172.273 32.2763C171.64 32.2763 171.057 32.4219 170.525 32.7133C170.006 32.9919 169.588 33.4226 169.271 34.0053C168.954 34.5879 168.796 35.2973 168.796 36.1333C168.796 36.9819 168.948 37.6976 169.252 38.2803C169.569 38.8629 169.987 39.2999 170.506 39.5913C171.025 39.8699 171.595 40.0093 172.216 40.0093ZM189.062 30.9463V41.3583H187.333V39.8193C187.004 40.3513 186.542 40.7693 185.946 41.0733C185.364 41.3646 184.718 41.5103 184.008 41.5103C183.198 41.5103 182.469 41.3456 181.823 41.0163C181.177 40.6743 180.664 40.1676 180.284 39.4963C179.917 38.8249 179.733 38.0079 179.733 37.0453V30.9463H181.443V36.8173C181.443 37.8433 181.703 38.6349 182.222 39.1923C182.742 39.7369 183.451 40.0093 184.35 40.0093C185.275 40.0093 186.003 39.7243 186.535 39.1543C187.067 38.5843 187.333 37.7546 187.333 36.6653V30.9463H189.062ZM193.711 32.6373C194.015 32.0419 194.445 31.5796 195.003 31.2503C195.573 30.9209 196.263 30.7563 197.074 30.7563V32.5423H196.618C194.68 32.5423 193.711 33.5936 193.711 35.6963V41.3583H191.982V30.9463H193.711V32.6373ZM212.989 31.9913C212.989 33.0933 212.609 34.0116 211.849 34.7463C211.102 35.4683 209.955 35.8293 208.41 35.8293H205.864V41.3583H204.135V28.1153H208.41C209.905 28.1153 211.038 28.4763 211.811 29.1983C212.596 29.9203 212.989 30.8513 212.989 31.9913ZM208.41 34.4043C209.373 34.4043 210.082 34.1953 210.538 33.7773C210.994 33.3593 211.222 32.7639 211.222 31.9913C211.222 30.3573 210.285 29.5403 208.41 29.5403H205.864V34.4043H208.41ZM216.867 32.6373C217.171 32.0419 217.601 31.5796 218.159 31.2503C218.729 30.9209 219.419 30.7563 220.23 30.7563V32.5423H219.774C217.836 32.5423 216.867 33.5936 216.867 35.6963V41.3583H215.138V30.9463H216.867V32.6373ZM226.767 41.5293C225.791 41.5293 224.905 41.3076 224.107 40.8643C223.321 40.4209 222.701 39.7939 222.245 38.9833C221.801 38.1599 221.58 37.2099 221.58 36.1333C221.58 35.0693 221.808 34.1319 222.264 33.3213C222.732 32.4979 223.366 31.8709 224.164 31.4403C224.962 30.9969 225.855 30.7753 226.843 30.7753C227.831 30.7753 228.724 30.9969 229.522 31.4403C230.32 31.8709 230.947 32.4916 231.403 33.3023C231.871 34.1129 232.106 35.0566 232.106 36.1333C232.106 37.2099 231.865 38.1599 231.384 38.9833C230.915 39.7939 230.275 40.4209 229.465 40.8643C228.654 41.3076 227.755 41.5293 226.767 41.5293ZM226.767 40.0093C227.387 40.0093 227.97 39.8636 228.515 39.5723C229.059 39.2809 229.496 38.8439 229.826 38.2613C230.168 37.6786 230.339 36.9693 230.339 36.1333C230.339 35.2973 230.174 34.5879 229.845 34.0053C229.515 33.4226 229.085 32.9919 228.553 32.7133C228.021 32.4219 227.444 32.2763 226.824 32.2763C226.19 32.2763 225.608 32.4219 225.076 32.7133C224.556 32.9919 224.138 33.4226 223.822 34.0053C223.505 34.5879 223.347 35.2973 223.347 36.1333C223.347 36.9819 223.499 37.6976 223.803 38.2803C224.119 38.8629 224.537 39.2999 225.057 39.5913C225.576 39.8699 226.146 40.0093 226.767 40.0093ZM235.31 29.2553C234.981 29.2553 234.702 29.1413 234.474 28.9133C234.259 28.6853 234.151 28.4066 234.151 28.0773C234.151 27.7479 234.259 27.4693 234.474 27.2413C234.702 27.0133 234.981 26.8993 235.31 26.8993C235.639 26.8993 235.912 27.0133 236.127 27.2413C236.355 27.4693 236.469 27.7479 236.469 28.0773C236.469 28.4066 236.355 28.6853 236.127 28.9133C235.912 29.1413 235.639 29.2553 235.31 29.2553ZM236.165 43.6193C236.165 44.5439 235.931 45.2216 235.462 45.6523C234.993 46.0829 234.309 46.2983 233.41 46.2983H232.403V44.8353H233.125C233.606 44.8353 233.942 44.7403 234.132 44.5503C234.335 44.3603 234.436 44.0373 234.436 43.5813V30.9463H236.165V43.6193ZM248.592 35.7533C248.592 36.0826 248.573 36.4309 248.535 36.7983H240.213C240.276 37.8243 240.625 38.6286 241.258 39.2113C241.904 39.7813 242.683 40.0663 243.595 40.0663C244.342 40.0663 244.963 39.8953 245.457 39.5533C245.964 39.1986 246.318 38.7299 246.521 38.1473H248.383C248.104 39.1479 247.547 39.9649 246.711 40.5983C245.875 41.2189 244.836 41.5293 243.595 41.5293C242.607 41.5293 241.72 41.3076 240.935 40.8643C240.162 40.4209 239.554 39.7939 239.111 38.9833C238.668 38.1599 238.446 37.2099 238.446 36.1333C238.446 35.0566 238.661 34.1129 239.092 33.3023C239.523 32.4916 240.124 31.8709 240.897 31.4403C241.682 30.9969 242.582 30.7753 243.595 30.7753C244.583 30.7753 245.457 30.9906 246.217 31.4213C246.977 31.8519 247.56 32.4473 247.965 33.2073C248.383 33.9546 248.592 34.8033 248.592 35.7533ZM246.806 35.3923C246.806 34.7336 246.66 34.1699 246.369 33.7013C246.078 33.2199 245.679 32.8589 245.172 32.6183C244.678 32.3649 244.127 32.2383 243.519 32.2383C242.645 32.2383 241.898 32.5169 241.277 33.0743C240.669 33.6316 240.321 34.4043 240.232 35.3923H246.806ZM250.228 36.1333C250.228 35.0566 250.443 34.1193 250.874 33.3213C251.305 32.5106 251.9 31.8836 252.66 31.4403C253.433 30.9969 254.313 30.7753 255.301 30.7753C256.58 30.7753 257.632 31.0856 258.455 31.7063C259.291 32.3269 259.842 33.1883 260.108 34.2903H258.246C258.069 33.6569 257.72 33.1566 257.201 32.7893C256.694 32.4219 256.061 32.2383 255.301 32.2383C254.313 32.2383 253.515 32.5803 252.907 33.2643C252.299 33.9356 251.995 34.8919 251.995 36.1333C251.995 37.3873 252.299 38.3563 252.907 39.0403C253.515 39.7243 254.313 40.0663 255.301 40.0663C256.061 40.0663 256.694 39.8889 257.201 39.5343C257.708 39.1796 258.056 38.6729 258.246 38.0143H260.108C259.829 39.0783 259.272 39.9333 258.436 40.5793C257.6 41.2126 256.555 41.5293 255.301 41.5293C254.313 41.5293 253.433 41.3076 252.66 40.8643C251.9 40.4209 251.305 39.7939 250.874 38.9833C250.443 38.1726 250.228 37.2226 250.228 36.1333ZM264.524 32.3713V38.5083C264.524 39.0149 264.632 39.3759 264.847 39.5913C265.062 39.7939 265.436 39.8953 265.968 39.8953H267.241V41.3583H265.683C264.72 41.3583 263.998 41.1366 263.517 40.6933C263.036 40.2499 262.795 39.5216 262.795 38.5083V32.3713H261.446V30.9463H262.795V28.3243H264.524V30.9463H267.241V32.3713H264.524Z" fill="#8474A1"/>
<path d="M0 49.4774V30.019C0 29.7875 0.187682 29.5998 0.419198 29.5998H16.8824C16.8824 29.5998 28.1694 29.4532 28.1694 39.7486C28.1694 50.0441 16.8824 49.8966 16.8824 49.8966H0.419197C0.187681 49.8966 0 49.7089 0 49.4774Z" fill="#8474A1"/>
<path d="M17.5218 30.1821V28.2866C17.5218 28.1949 17.5515 28.1063 17.6051 28.0319C17.8666 27.6691 18.6537 26.5181 18.6537 25.8101C18.6537 24.9609 17.9745 23.475 14.8053 23.475C11.6361 23.475 10.957 25.1732 10.957 25.8101C10.957 26.3512 11.7743 27.6588 12.0199 28.0395C12.0648 28.109 12.0889 28.1893 12.0889 28.2721V30.1821C12.0889 30.4136 12.2766 30.6013 12.5081 30.6013H14.9975H17.1026C17.3341 30.6013 17.5218 30.4136 17.5218 30.1821Z" fill="#8474A1"/>
<path d="M0 33.8317V14.7963C0 14.5647 0.187681 14.3771 0.419197 14.3771H15.6225C15.6225 14.3771 26.0672 14.2335 26.0672 24.3144C26.0672 34.3954 15.6225 34.2509 15.6225 34.2509H12.7089C12.4774 34.2509 12.2897 34.4386 12.2897 34.6701V35.7076C12.2897 35.7946 12.3164 35.8787 12.3649 35.9509C12.6039 36.3066 13.3312 37.4463 13.3312 38.1468C13.3312 38.9852 12.7063 40.4524 9.79009 40.4524C6.87389 40.4524 6.24899 38.7756 6.24899 38.1468C6.24899 37.6112 7.0049 36.3148 7.22875 35.9427C7.26905 35.8757 7.29049 35.7998 7.29049 35.7217V34.6701C7.29049 34.4386 7.10281 34.2509 6.8713 34.2509H0.419197C0.187681 34.2509 0 34.0633 0 33.8317Z" fill="#CCABD8" fill-opacity="0.77"/>
<path d="M35.8413 49.161C35.4836 49.161 35.2332 49.0358 35.0901 48.7854C34.9471 48.535 34.8755 48.2667 34.8755 47.9805C34.9113 47.3724 35.0544 47.0326 35.3048 46.961C35.5552 46.8895 35.8592 46.8537 36.2169 46.8537C37.3616 46.8537 38.1665 46.657 38.6315 46.2635C39.0966 45.8342 39.3827 45.3155 39.49 44.7074C39.6331 44.0635 39.7047 43.4018 39.7047 42.7221V36.015C39.7047 35.7646 39.5079 35.1922 39.1144 34.2979C38.7567 33.3679 38.2738 32.2947 37.6657 31.0785C37.0933 29.8623 36.4852 28.6103 35.8413 27.3225C35.1975 26.0347 34.5893 24.8722 34.017 23.8348C33.4804 22.7616 33.0512 21.9389 32.7292 21.3665C31.978 20.0072 31.1553 19.0414 30.261 18.4691C29.3667 17.8609 28.3472 17.4317 27.2025 17.1813C26.7017 17.074 26.344 16.9845 26.1294 16.913C25.9505 16.8415 25.8611 16.5195 25.8611 15.9472C25.8611 15.3391 26.0757 15.0171 26.505 14.9813C26.9343 14.9098 27.4351 14.874 28.0074 14.874C30.5472 14.874 32.5861 15.2675 34.1243 16.0545C35.6983 16.8415 37.0934 18.3081 38.3096 20.4544C39.347 22.386 40.277 24.264 41.0998 26.0884C41.9583 27.9127 42.9062 29.7728 43.9436 31.6687H44.1046L50.0605 19.9178C50.6686 18.7016 50.7402 17.9683 50.2751 17.7179C49.8101 17.4317 48.9516 17.2886 47.6996 17.2886C47.3419 17.2886 47.0378 17.2528 46.7874 17.1813C46.537 17.1097 46.3939 16.7699 46.3582 16.1618C46.3582 15.8756 46.4297 15.6073 46.5728 15.3569C46.7159 15.1065 46.9484 14.9813 47.2703 14.9813C48.415 15.0171 49.3987 15.0529 50.2215 15.0887C51.08 15.1244 52.0458 15.1423 53.119 15.1423C54.1921 15.1423 55.0685 15.1244 55.7482 15.0887C56.4636 15.0529 57.3937 15.0171 58.5383 14.9813C58.8961 14.9813 59.1465 15.1065 59.2895 15.3569C59.4326 15.6073 59.5042 15.8756 59.5042 16.1618C59.4684 16.7699 59.3253 17.1097 59.0749 17.1813C58.8603 17.2528 58.5562 17.2886 58.1627 17.2886C56.8034 17.2886 55.6945 17.5927 54.836 18.2008C53.9775 18.7731 53.2084 19.6853 52.5287 20.9373L46.4655 32.3663C46.1435 33.0459 45.8752 33.6183 45.6606 34.0833C45.446 34.5483 45.285 35.0312 45.1777 35.532C45.0704 36.0328 45.0167 36.6946 45.0167 37.5174V42.7221C45.0525 43.4018 45.124 44.0635 45.2314 44.7074C45.3387 45.3155 45.6248 45.8342 46.0899 46.2635C46.5907 46.657 47.3955 46.8537 48.5044 46.8537C48.8979 46.8537 49.202 46.8895 49.4166 46.961C49.667 47.0326 49.8101 47.3724 49.8459 47.9805C49.8459 48.2667 49.7743 48.535 49.6312 48.7854C49.4882 49.0358 49.2556 49.161 48.9337 49.161C47.789 49.0894 46.698 49.0358 45.6606 49C44.6232 49 43.568 49 42.4948 49C40.3843 49 38.1665 49.0537 35.8413 49.161ZM61.6157 49.161C61.2937 49.161 61.0433 49.0358 60.8645 48.7854C60.7214 48.535 60.6498 48.2667 60.6498 47.9805C60.6856 47.3724 60.8287 47.0326 61.0791 46.961C61.3653 46.8895 61.6872 46.8537 62.0449 46.8537C63.1896 46.8537 63.9945 46.657 64.4595 46.2635C64.9245 45.8342 65.2107 45.3155 65.318 44.7074C65.4611 44.0635 65.5326 43.4018 65.5326 42.7221V21.4202C65.5326 20.7405 65.4611 20.0967 65.318 19.4885C65.2107 18.8447 64.9245 18.326 64.4595 17.9325C63.9945 17.5032 63.1896 17.2886 62.0449 17.2886C61.6872 17.2886 61.3653 17.2528 61.0791 17.1813C60.8287 17.1097 60.6856 16.7699 60.6498 16.1618C60.6498 15.8756 60.7214 15.6073 60.8645 15.3569C61.0433 15.1065 61.2937 14.9813 61.6157 14.9813C62.7603 15.0171 63.8514 15.0529 64.8887 15.0887C65.9261 15.1244 66.9814 15.1423 68.0545 15.1423H76.1031C76.7828 15.1423 77.6592 15.196 78.7323 15.3033C79.8412 15.4106 81.0038 15.6252 82.22 15.9472C83.472 16.2691 84.6525 16.7878 85.7614 17.5032C86.8703 18.2187 87.7646 19.1666 88.4443 20.3471C89.1597 21.5275 89.5174 23.012 89.5174 24.8006C89.5174 26.4819 89.1239 28.0022 88.3369 29.3615C87.5857 30.7208 86.5662 31.8834 85.2785 32.8492C84.0265 33.815 82.5956 34.5662 80.9859 35.1028C79.412 35.6036 77.8022 35.854 76.1568 35.854C75.3698 35.854 74.5113 35.8003 73.5812 35.693C72.6512 35.5857 71.7211 35.3532 70.791 34.9955V42.7221C70.8268 43.4018 70.8984 44.0635 71.0057 44.7074C71.113 45.3155 71.3992 45.8342 71.8642 46.2635C72.365 46.657 73.1698 46.8537 74.2788 46.8537C74.6722 46.8537 74.9942 46.8895 75.2446 46.961C75.495 47.0326 75.6381 47.3724 75.6738 47.9805C75.6738 48.2667 75.5844 48.535 75.4056 48.7854C75.2625 49.0358 75.03 49.161 74.708 49.161C72.4186 49.0537 70.1829 49 68.0009 49C66.9277 49 65.8725 49 64.8351 49C63.8335 49.0358 62.7603 49.0894 61.6157 49.161ZM74.6007 33.4394C75.4234 33.4394 76.3356 33.3142 77.3372 33.0638C78.3746 32.7776 79.3583 32.3305 80.2884 31.7224C81.2542 31.0785 82.0412 30.22 82.6493 29.1468C83.2574 28.0379 83.5614 26.6428 83.5614 24.9616C83.5614 23.1372 83.2037 21.7064 82.4883 20.669C81.7729 19.5959 80.8786 18.8089 79.8054 18.3081C78.7681 17.8073 77.7307 17.4853 76.6933 17.3423C75.656 17.1992 74.8153 17.1276 74.1714 17.1276C73.3129 17.1276 72.6333 17.2171 72.1325 17.3959C71.6317 17.5748 71.274 17.9683 71.0593 18.5764C70.8805 19.1487 70.791 20.043 70.791 21.2592V32.8492C71.1488 32.9923 71.6674 33.1354 72.3471 33.2784C73.0268 33.3858 73.778 33.4394 74.6007 33.4394Z" fill="#8474A1"/>
</svg>
