<svg width="310" height="109" viewBox="0 0 310 109" fill="none" xmlns="http://www.w3.org/2000/svg">
<path d="M27.1033 88.3763C27.9372 88.508 28.6944 88.8482 29.3748 89.3968C30.0771 89.9455 30.6257 90.6259 31.0208 91.4379C31.4378 92.2499 31.6463 93.1168 31.6463 94.0386C31.6463 95.2018 31.35 96.2552 30.7574 97.1989C30.1649 98.1207 29.298 98.8559 28.1567 99.4046C27.0374 99.9313 25.7096 100.195 24.1734 100.195H15.6141V77.2492H23.8441C25.4024 77.2492 26.7302 77.5126 27.8275 78.0393C28.9249 78.5441 29.7479 79.2354 30.2965 80.1133C30.8452 80.9912 31.1195 81.9788 31.1195 83.0761C31.1195 84.4368 30.7465 85.5671 30.0003 86.4669C29.276 87.3448 28.3103 87.9813 27.1033 88.3763ZM18.6098 87.1582H23.6466C25.0512 87.1582 26.1376 86.829 26.9057 86.1706C27.6739 85.5122 28.058 84.6014 28.058 83.4382C28.058 82.2751 27.6739 81.3643 26.9057 80.7059C26.1376 80.0474 25.0293 79.7182 23.5808 79.7182H18.6098V87.1582ZM23.91 97.7257C25.4024 97.7257 26.5656 97.3745 27.3995 96.6722C28.2335 95.9699 28.6505 94.9933 28.6505 93.7423C28.6505 92.4694 28.2116 91.4708 27.3337 90.7466C26.4558 90.0004 25.2817 89.6273 23.8112 89.6273H18.6098V97.7257H23.91ZM51.8028 82.1543V100.195H48.807V97.5282C48.2364 98.4499 47.4354 99.1742 46.4039 99.7009C45.3943 100.206 44.275 100.458 43.046 100.458C41.6414 100.458 40.3794 100.173 39.2601 99.6021C38.1408 99.0096 37.252 98.1317 36.5936 96.9685C35.9571 95.8053 35.6389 94.3897 35.6389 92.7218V82.1543H38.6017V92.3267C38.6017 94.1044 39.0516 95.4761 39.9515 96.4418C40.8513 97.3855 42.0803 97.8574 43.6385 97.8574C45.2407 97.8574 46.5026 97.3636 47.4244 96.3759C48.3462 95.3883 48.807 93.9508 48.807 92.0634V82.1543H51.8028ZM58.4082 79.2244C57.8376 79.2244 57.3548 79.0269 56.9597 78.6319C56.5647 78.2368 56.3671 77.754 56.3671 77.1834C56.3671 76.6128 56.5647 76.1299 56.9597 75.7349C57.3548 75.3398 57.8376 75.1423 58.4082 75.1423C58.9569 75.1423 59.4178 75.3398 59.7909 75.7349C60.1859 76.1299 60.3834 76.6128 60.3834 77.1834C60.3834 77.754 60.1859 78.2368 59.7909 78.6319C59.4178 79.0269 58.9569 79.2244 58.4082 79.2244ZM59.8567 82.1543V100.195H56.8609V82.1543H59.8567ZM67.9582 75.8336V100.195H64.9624V75.8336H67.9582ZM71.9446 91.1087C71.9446 89.2651 72.3177 87.652 73.0639 86.2694C73.8101 84.8648 74.8307 83.7784 76.1255 83.0103C77.4423 82.2421 78.9128 81.8581 80.5369 81.8581C81.9415 81.8581 83.2473 82.1873 84.4544 82.8457C85.6615 83.4821 86.5832 84.3271 87.2197 85.3805V75.8336H90.2484V100.195H87.2197V96.8039C86.6271 97.8793 85.7492 98.7682 84.5861 99.4705C83.4229 100.151 82.0622 100.491 80.5039 100.491C78.9018 100.491 77.4423 100.096 76.1255 99.3059C74.8307 98.5158 73.8101 97.4074 73.0639 95.9809C72.3177 94.5543 71.9446 92.9303 71.9446 91.1087ZM87.2197 91.1416C87.2197 89.7809 86.9454 88.5958 86.3967 87.5862C85.848 86.5766 85.1018 85.8085 84.1581 85.2818C83.2363 84.7331 82.2158 84.4588 81.0965 84.4588C79.9772 84.4588 78.9567 84.7221 78.0349 85.2489C77.1131 85.7756 76.3779 86.5437 75.8292 87.5533C75.2806 88.5628 75.0062 89.748 75.0062 91.1087C75.0062 92.4913 75.2806 93.6984 75.8292 94.7299C76.3779 95.7395 77.1131 96.5186 78.0349 97.0673C78.9567 97.594 79.9772 97.8574 81.0965 97.8574C82.2158 97.8574 83.2363 97.594 84.1581 97.0673C85.1018 96.5186 85.848 95.7395 86.3967 94.7299C86.9454 93.6984 87.2197 92.5023 87.2197 91.1416ZM120.153 77.2492L112.68 91.5366V100.195H109.684V91.5366L102.178 77.2492H105.503L111.165 88.8701L116.828 77.2492H120.153ZM131.18 100.491C129.491 100.491 127.954 100.107 126.572 99.3388C125.211 98.5706 124.135 97.4843 123.345 96.0797C122.577 94.6531 122.193 93.0071 122.193 91.1416C122.193 89.2981 122.588 87.674 123.378 86.2694C124.19 84.8428 125.288 83.7565 126.67 83.0103C128.053 82.2421 129.6 81.8581 131.312 81.8581C133.024 81.8581 134.571 82.2421 135.954 83.0103C137.337 83.7565 138.423 84.8319 139.213 86.2365C140.025 87.6411 140.431 89.2761 140.431 91.1416C140.431 93.0071 140.014 94.6531 139.18 96.0797C138.368 97.4843 137.26 98.5706 135.855 99.3388C134.451 100.107 132.892 100.491 131.18 100.491ZM131.18 97.8574C132.256 97.8574 133.265 97.605 134.209 97.1002C135.153 96.5954 135.91 95.8382 136.481 94.8287C137.073 93.8191 137.369 92.5901 137.369 91.1416C137.369 89.6931 137.084 88.4641 136.514 87.4545C135.943 86.445 135.197 85.6988 134.275 85.2159C133.353 84.7112 132.355 84.4588 131.279 84.4588C130.182 84.4588 129.172 84.7112 128.251 85.2159C127.351 85.6988 126.626 86.445 126.078 87.4545C125.529 88.4641 125.255 89.6931 125.255 91.1416C125.255 92.612 125.518 93.852 126.045 94.8616C126.594 95.8712 127.318 96.6283 128.218 97.1331C129.117 97.6159 130.105 97.8574 131.18 97.8574ZM160.369 82.1543V100.195H157.373V97.5282C156.803 98.4499 156.002 99.1742 154.97 99.7009C153.961 100.206 152.841 100.458 151.612 100.458C150.208 100.458 148.946 100.173 147.827 99.6021C146.707 99.0096 145.818 98.1317 145.16 96.9685C144.524 95.8053 144.205 94.3897 144.205 92.7218V82.1543H147.168V92.3267C147.168 94.1044 147.618 95.4761 148.518 96.4418C149.418 97.3855 150.647 97.8574 152.205 97.8574C153.807 97.8574 155.069 97.3636 155.991 96.3759C156.913 95.3883 157.373 93.9508 157.373 92.0634V82.1543H160.369ZM168.423 85.0843C168.95 84.0528 169.696 83.2517 170.662 82.6811C171.649 82.1105 172.845 81.8251 174.25 81.8251V84.9197H173.46C170.102 84.9197 168.423 86.7413 168.423 90.3844V100.195H165.427V82.1543H168.423V85.0843ZM201.826 83.965C201.826 85.8743 201.167 87.4655 199.851 88.7384C198.556 89.9894 196.569 90.6149 193.892 90.6149H189.481V100.195H186.485V77.2492H193.892C196.482 77.2492 198.446 77.8747 199.785 79.1257C201.145 80.3766 201.826 81.9897 201.826 83.965ZM193.892 88.1459C195.56 88.1459 196.789 87.7837 197.579 87.0595C198.369 86.3352 198.764 85.3037 198.764 83.965C198.764 81.1338 197.14 79.7182 193.892 79.7182H189.481V88.1459H193.892ZM208.545 85.0843C209.072 84.0528 209.818 83.2517 210.783 82.6811C211.771 82.1105 212.967 81.8251 214.372 81.8251V84.9197H213.582C210.224 84.9197 208.545 86.7413 208.545 90.3844V100.195H205.549V82.1543H208.545V85.0843ZM225.698 100.491C224.008 100.491 222.472 100.107 221.089 99.3388C219.728 98.5706 218.653 97.4843 217.863 96.0797C217.095 94.6531 216.711 93.0071 216.711 91.1416C216.711 89.2981 217.106 87.674 217.896 86.2694C218.708 84.8428 219.805 83.7565 221.188 83.0103C222.57 82.2421 224.118 81.8581 225.83 81.8581C227.541 81.8581 229.089 82.2421 230.471 83.0103C231.854 83.7565 232.94 84.8319 233.73 86.2365C234.542 87.6411 234.948 89.2761 234.948 91.1416C234.948 93.0071 234.532 94.6531 233.698 96.0797C232.885 97.4843 231.777 98.5706 230.373 99.3388C228.968 100.107 227.41 100.491 225.698 100.491ZM225.698 97.8574C226.773 97.8574 227.783 97.605 228.727 97.1002C229.67 96.5954 230.427 95.8382 230.998 94.8287C231.591 93.8191 231.887 92.5901 231.887 91.1416C231.887 89.6931 231.602 88.4641 231.031 87.4545C230.46 86.445 229.714 85.6988 228.792 85.2159C227.871 84.7112 226.872 84.4588 225.797 84.4588C224.699 84.4588 223.69 84.7112 222.768 85.2159C221.868 85.6988 221.144 86.445 220.595 87.4545C220.047 88.4641 219.772 89.6931 219.772 91.1416C219.772 92.612 220.036 93.852 220.562 94.8616C221.111 95.8712 221.835 96.6283 222.735 97.1331C223.635 97.6159 224.622 97.8574 225.698 97.8574ZM240.5 79.2244C239.93 79.2244 239.447 79.0269 239.052 78.6319C238.679 78.2368 238.492 77.754 238.492 77.1834C238.492 76.6128 238.679 76.1299 239.052 75.7349C239.447 75.3398 239.93 75.1423 240.5 75.1423C241.071 75.1423 241.543 75.3398 241.916 75.7349C242.311 76.1299 242.509 76.6128 242.509 77.1834C242.509 77.754 242.311 78.2368 241.916 78.6319C241.543 79.0269 241.071 79.2244 240.5 79.2244ZM241.982 104.112C241.982 105.714 241.576 106.889 240.764 107.635C239.952 108.381 238.767 108.754 237.208 108.754H235.464V106.219H236.715C237.549 106.219 238.13 106.055 238.459 105.725C238.811 105.396 238.986 104.836 238.986 104.046V82.1543H241.982V104.112ZM263.513 90.4832C263.513 91.0538 263.48 91.6574 263.415 92.2938H248.995C249.105 94.0715 249.709 95.4651 250.806 96.4747C251.925 97.4623 253.275 97.9561 254.855 97.9561C256.15 97.9561 257.226 97.6598 258.081 97.0673C258.959 96.4528 259.574 95.6407 259.925 94.6312H263.151C262.668 96.365 261.703 97.7805 260.254 98.8779C258.806 99.9533 257.006 100.491 254.855 100.491C253.143 100.491 251.607 100.107 250.246 99.3388C248.908 98.5706 247.854 97.4843 247.086 96.0797C246.318 94.6531 245.934 93.0071 245.934 91.1416C245.934 89.2761 246.307 87.6411 247.053 86.2365C247.799 84.8319 248.842 83.7565 250.181 83.0103C251.541 82.2421 253.1 81.8581 254.855 81.8581C256.567 81.8581 258.081 82.2312 259.398 82.9774C260.715 83.7236 261.725 84.7551 262.427 86.0719C263.151 87.3667 263.513 88.8372 263.513 90.4832ZM260.419 89.8577C260.419 88.7165 260.166 87.7398 259.662 86.9278C259.157 86.0938 258.466 85.4683 257.588 85.0513C256.732 84.6124 255.777 84.3929 254.724 84.3929C253.209 84.3929 251.914 84.8758 250.839 85.8414C249.786 86.8071 249.182 88.1459 249.028 89.8577H260.419ZM266.348 91.1416C266.348 89.2761 266.721 87.652 267.468 86.2694C268.214 84.8648 269.245 83.7784 270.562 83.0103C271.901 82.2421 273.426 81.8581 275.138 81.8581C277.355 81.8581 279.176 82.3958 280.603 83.4712C282.051 84.5466 283.006 86.0389 283.467 87.9483H280.241C279.933 86.851 279.33 85.9841 278.43 85.3476C277.552 84.7112 276.455 84.3929 275.138 84.3929C273.426 84.3929 272.044 84.9855 270.99 86.1706C269.937 87.3338 269.41 88.9908 269.41 91.1416C269.41 93.3143 269.937 94.9933 270.99 96.1784C272.044 97.3636 273.426 97.9561 275.138 97.9561C276.455 97.9561 277.552 97.6489 278.43 97.0343C279.308 96.4198 279.912 95.542 280.241 94.4007H283.467C282.984 96.2443 282.018 97.7257 280.57 98.845C279.121 99.9423 277.311 100.491 275.138 100.491C273.426 100.491 271.901 100.107 270.562 99.3388C269.245 98.5706 268.214 97.4843 267.468 96.0797C266.721 94.6751 266.348 93.029 266.348 91.1416ZM291.118 84.6234V95.2566C291.118 96.1345 291.305 96.76 291.678 97.1331C292.051 97.4843 292.698 97.6598 293.62 97.6598H295.826V100.195H293.126C291.458 100.195 290.208 99.8106 289.374 99.0425C288.54 98.2743 288.123 97.0124 288.123 95.2566V84.6234H285.785V82.1543H288.123V77.6113H291.118V82.1543H295.826V84.6234H291.118Z" fill="#8474A1"/>
<path d="M102.602 64.7592V39.2909C102.602 38.9879 102.847 38.7422 103.15 38.7422H124.695L124.699 38.7422C124.776 38.7413 139.472 38.5857 139.472 52.0256C139.472 65.4653 124.777 65.3088 124.699 65.3079L124.695 65.3079H103.15C102.847 65.3079 102.602 65.0623 102.602 64.7592Z" fill="#8474A1"/>
<path d="M125.536 39.5044V37.0235C125.536 36.9034 125.574 36.7875 125.645 36.6901C125.987 36.2152 127.017 34.7088 127.017 33.782C127.017 32.6706 126.128 30.7256 121.98 30.7256C117.832 30.7256 116.943 32.9484 116.943 33.782C116.943 34.4903 118.013 36.2017 118.334 36.7C118.393 36.791 118.425 36.8961 118.425 37.0044V39.5044C118.425 39.8075 118.67 40.0531 118.973 40.0531H122.232H124.987C125.29 40.0531 125.536 39.8075 125.536 39.5044Z" fill="#8474A1"/>
<path d="M102.602 44.2813V19.3664C102.602 19.0634 102.847 18.8177 103.15 18.8177H123.046L123.05 18.8177C123.132 18.8167 136.72 18.6694 136.72 31.8244C136.72 44.9791 123.132 44.831 123.05 44.83L123.046 44.83H119.236C118.933 44.83 118.687 45.0756 118.687 45.3786V46.7365C118.687 46.8503 118.722 46.9605 118.786 47.055C119.099 47.5206 120.051 49.0122 120.051 49.9292C120.051 51.0265 119.233 52.9469 115.416 52.9469C111.599 52.9469 110.781 50.7522 110.781 49.9292C110.781 49.228 111.77 47.5313 112.063 47.0443C112.116 46.9566 112.144 46.8573 112.144 46.755V45.3786C112.144 45.0756 111.898 44.83 111.595 44.83H103.15C102.847 44.83 102.602 44.5843 102.602 44.2813Z" fill="#CCABD8" fill-opacity="0.77"/>
<path d="M149.514 64.2107C149.045 64.2107 148.718 64.0468 148.53 63.7191C148.343 63.3913 148.249 63.0402 148.249 62.6656C148.296 61.8697 148.484 61.4249 148.811 61.3313C149.139 61.2376 149.537 61.1908 150.005 61.1908C151.503 61.1908 152.557 60.9333 153.166 60.4183C153.774 59.8564 154.149 59.1775 154.289 58.3816C154.477 57.5388 154.57 56.6727 154.57 55.7831V47.0043C154.57 46.6766 154.313 45.9275 153.798 44.757C153.329 43.5396 152.697 42.135 151.901 40.5431C151.152 38.9513 150.356 37.3126 149.514 35.627C148.671 33.9415 147.875 32.4199 147.126 31.0621C146.424 29.6575 145.862 28.5806 145.44 27.8315C144.457 26.0523 143.38 24.7882 142.21 24.0391C141.039 23.2431 139.705 22.6813 138.207 22.3536C137.551 22.2131 137.083 22.096 136.802 22.0024C136.568 21.9088 136.451 21.4874 136.451 20.7383C136.451 19.9423 136.732 19.5209 137.294 19.4741C137.855 19.3805 138.511 19.3337 139.26 19.3337C142.584 19.3337 145.253 19.8487 147.266 20.8787C149.326 21.9088 151.152 23.8284 152.744 26.6376C154.102 29.1659 155.319 31.6239 156.396 34.0118C157.52 36.3996 158.761 38.8342 160.118 41.3157H160.329L168.125 25.9353C168.921 24.3434 169.014 23.3836 168.406 23.0559C167.797 22.6813 166.673 22.494 165.034 22.494C164.566 22.494 164.168 22.4472 163.841 22.3536C163.513 22.2599 163.326 21.8151 163.279 21.0192C163.279 20.6446 163.372 20.2935 163.56 19.9657C163.747 19.638 164.051 19.4741 164.473 19.4741C165.971 19.5209 167.258 19.5678 168.335 19.6146C169.459 19.6614 170.723 19.6848 172.128 19.6848C173.532 19.6848 174.679 19.6614 175.569 19.6146C176.505 19.5678 177.723 19.5209 179.221 19.4741C179.689 19.4741 180.017 19.638 180.204 19.9657C180.391 20.2935 180.485 20.6446 180.485 21.0192C180.438 21.8151 180.251 22.2599 179.923 22.3536C179.642 22.4472 179.244 22.494 178.729 22.494C176.95 22.494 175.499 22.892 174.375 23.6879C173.251 24.437 172.245 25.631 171.355 27.2697L163.419 42.2287C162.998 43.1183 162.647 43.8674 162.366 44.476C162.085 45.0847 161.874 45.7168 161.734 46.3722C161.593 47.0277 161.523 47.8939 161.523 48.9708V55.7831C161.57 56.6727 161.663 57.5388 161.804 58.3816C161.944 59.1775 162.319 59.8564 162.928 60.4183C163.583 60.9333 164.637 61.1908 166.088 61.1908C166.603 61.1908 167.001 61.2376 167.282 61.3313C167.61 61.4249 167.797 61.8697 167.844 62.6656C167.844 63.0402 167.75 63.3913 167.563 63.7191C167.375 64.0468 167.071 64.2107 166.65 64.2107C165.152 64.1171 163.724 64.0468 162.366 64C161.008 64 159.627 64 158.222 64C155.46 64 152.557 64.0702 149.514 64.2107ZM183.249 64.2107C182.827 64.2107 182.5 64.0468 182.266 63.7191C182.078 63.3913 181.985 63.0402 181.985 62.6656C182.031 61.8697 182.219 61.4249 182.546 61.3313C182.921 61.2376 183.342 61.1908 183.811 61.1908C185.309 61.1908 186.362 60.9333 186.971 60.4183C187.58 59.8564 187.954 59.1775 188.095 58.3816C188.282 57.5388 188.376 56.6727 188.376 55.7831V27.9017C188.376 27.0122 188.282 26.1694 188.095 25.3735C187.954 24.5307 187.58 23.8518 186.971 23.3368C186.362 22.7749 185.309 22.494 183.811 22.494C183.342 22.494 182.921 22.4472 182.546 22.3536C182.219 22.2599 182.031 21.8151 181.985 21.0192C181.985 20.6446 182.078 20.2935 182.266 19.9657C182.5 19.638 182.827 19.4741 183.249 19.4741C184.747 19.5209 186.175 19.5678 187.533 19.6146C188.891 19.6614 190.272 19.6848 191.676 19.6848H202.211C203.1 19.6848 204.248 19.755 205.652 19.8955C207.104 20.036 208.625 20.3169 210.217 20.7383C211.856 21.1596 213.401 21.8385 214.852 22.7749C216.304 23.7113 217.474 24.9521 218.364 26.4971C219.3 28.0422 219.768 29.9852 219.768 32.3262C219.768 34.5268 219.253 36.5166 218.223 38.2958C217.24 40.0749 215.906 41.5966 214.22 42.8607C212.582 44.1249 210.709 45.1081 208.602 45.8104C206.542 46.4659 204.435 46.7936 202.281 46.7936C201.251 46.7936 200.127 46.7234 198.91 46.5829C197.693 46.4425 196.475 46.1381 195.258 45.6699V55.7831C195.305 56.6727 195.399 57.5388 195.539 58.3816C195.679 59.1775 196.054 59.8564 196.663 60.4183C197.318 60.9333 198.372 61.1908 199.823 61.1908C200.338 61.1908 200.759 61.2376 201.087 61.3313C201.415 61.4249 201.602 61.8697 201.649 62.6656C201.649 63.0402 201.532 63.3913 201.298 63.7191C201.111 64.0468 200.806 64.2107 200.385 64.2107C197.388 64.0702 194.462 64 191.606 64C190.202 64 188.82 64 187.463 64C186.152 64.0468 184.747 64.1171 183.249 64.2107ZM200.244 43.6333C201.321 43.6333 202.515 43.4694 203.826 43.1417C205.184 42.7671 206.472 42.1819 207.689 41.3859C208.953 40.5432 209.983 39.4195 210.779 38.0149C211.575 36.5634 211.973 34.7375 211.973 32.5369C211.973 30.1491 211.505 28.2763 210.568 26.9185C209.632 25.5139 208.461 24.4839 207.057 23.8284C205.699 23.1729 204.341 22.7515 202.983 22.5642C201.626 22.377 200.525 22.2833 199.683 22.2833C198.559 22.2833 197.669 22.4004 197.014 22.6345C196.358 22.8686 195.89 23.3836 195.609 24.1795C195.375 24.9287 195.258 26.0992 195.258 27.691V42.8607C195.726 43.048 196.405 43.2353 197.295 43.4226C198.184 43.563 199.168 43.6333 200.244 43.6333Z" fill="#8474A1"/>
</svg>
