<svg width="42" height="42" viewBox="0 0 42 42" fill="none" xmlns="http://www.w3.org/2000/svg">
<g clip-path="url(#clip0_28_263)">
<path d="M21.3346 13.9477C23.2276 13.9477 24.7764 12.3989 24.7764 10.5059C24.7764 8.61285 23.2276 7.06403 21.3346 7.06403C19.4416 7.06403 17.8928 8.61285 17.8928 10.5059C17.8928 12.3989 19.4416 13.9477 21.3346 13.9477ZM21.3346 17.3895C19.4416 17.3895 17.8928 18.9383 17.8928 20.8314C17.8928 22.7244 19.4416 24.2732 21.3346 24.2732C23.2276 24.2732 24.7764 22.7244 24.7764 20.8314C24.7764 18.9383 23.2276 17.3895 21.3346 17.3895ZM21.3346 27.715C19.4416 27.715 17.8928 29.2638 17.8928 31.1569C17.8928 33.0499 19.4416 34.5987 21.3346 34.5987C23.2276 34.5987 24.7764 33.0499 24.7764 31.1569C24.7764 29.2638 23.2276 27.715 21.3346 27.715Z" fill="#4E4E4E"/>
</g>
<defs>
<clipPath id="clip0_28_263">
<rect width="41.302" height="41.302" fill="white" transform="translate(0.683594 0.180359)"/>
</clipPath>
</defs>
</svg>
