<svg width="504" height="504" viewBox="0 0 504 504" fill="none" xmlns="http://www.w3.org/2000/svg">
<path d="M335.362 288.086C335.16 288.086 334.858 287.986 334.757 287.784L311.069 253.714C310.867 253.411 310.867 252.907 311.271 252.706C311.573 252.504 312.077 252.504 312.279 252.907L335.967 286.978C336.168 287.28 336.067 287.784 335.765 287.986C335.664 287.986 335.563 288.086 335.362 288.086Z" fill="#D1D3D4"/>
<path d="M336.067 92.9376C335.865 92.9376 335.765 92.8368 335.563 92.736C335.261 92.4336 335.261 92.0304 335.462 91.728L360.965 58.6656C361.166 58.3632 361.67 58.2624 361.973 58.5648C362.275 58.8672 362.376 59.2704 362.074 59.5728L336.672 92.6352C336.571 92.8368 336.269 92.9376 336.067 92.9376Z" fill="#D1D3D4"/>
<path d="M177.71 285.97C177.509 285.97 177.408 285.869 177.206 285.768C176.904 285.566 176.803 285.062 177.105 284.76L193.233 263.995C193.435 263.693 193.939 263.592 194.241 263.794C194.544 263.995 194.645 264.499 194.443 264.802C194.443 264.802 194.443 264.902 194.342 264.902L178.214 285.667C178.113 285.869 177.912 285.97 177.71 285.97Z" fill="#D1D3D4"/>
<path d="M262.584 351.59C262.181 351.59 261.878 351.288 261.778 350.885L257.04 266.717C257.04 266.314 257.342 265.91 257.746 265.91C258.149 265.91 258.552 266.213 258.552 266.616L263.29 350.784C263.39 351.187 262.987 351.49 262.584 351.59Z" fill="#D1D3D4"/>
<path d="M250.084 98.28C249.681 98.28 249.278 97.9776 249.278 97.4736V48.0816C249.278 47.6784 249.58 47.2752 250.084 47.2752C250.588 47.2752 250.891 47.5776 250.891 48.0816V97.5744C250.891 97.8768 250.588 98.28 250.084 98.28Z" fill="#D1D3D4"/>
<path d="M153.014 90.1152C152.813 90.1152 152.51 90.0144 152.409 89.8128L137.995 70.056C137.693 69.7536 137.793 69.2496 138.096 68.9472C138.398 68.6448 138.902 68.7456 139.205 69.048C139.205 69.048 139.205 69.1488 139.305 69.1488L153.72 88.9056C153.921 89.208 153.921 89.712 153.518 89.9136C153.317 90.1152 153.216 90.1152 153.014 90.1152Z" fill="#D1D3D4"/>
<path d="M138.701 241.92L179.626 414.994L144.043 423.562L104.933 283.752L93.6431 427.19L56.7503 425.275L55.4399 224.885L138.701 241.92Z" fill="#231F20"/>
<path d="M127.613 152.914C127.411 153.821 199.483 164.304 199.483 164.304L194.242 187.286C194.242 187.286 146.966 182.045 121.867 178.114L127.613 152.914Z" fill="white"/>
<path d="M194.241 187.891C193.637 187.891 146.563 182.65 121.766 178.718C121.565 178.718 121.363 178.517 121.262 178.416C121.161 178.214 121.061 178.013 121.161 177.811L126.806 152.712C126.907 152.309 127.31 152.107 127.713 152.107C127.814 152.107 127.915 152.208 128.016 152.309C130.838 153.317 172.166 159.566 199.483 163.498C199.685 163.498 199.886 163.598 199.987 163.8C200.088 164.002 200.189 164.203 200.088 164.405L194.846 187.387C194.846 187.69 194.544 187.891 194.241 187.891ZM122.774 177.307C146.059 181.037 187.79 185.674 193.637 186.379L198.576 164.808C144.749 157.046 131.544 154.627 128.217 153.72L122.774 177.307ZM128.318 152.914C128.318 153.014 128.318 153.014 128.318 153.115C128.318 153.014 128.318 152.914 128.318 152.914Z" fill="#231F20"/>
<path d="M86.1838 143.64C86.4862 142.733 130.133 152.107 130.133 152.107L128.52 184.867L98.5822 174.182C98.683 174.182 84.2686 149.688 86.1838 143.64Z" fill="#CCABD8"/>
<path d="M115.013 163.296C114.408 161.482 106.041 143.237 81.9503 142.632C57.8591 142.027 47.8799 141.019 42.7391 171.36C37.3967 203.414 54.1295 259.661 54.1295 259.661L146.16 238.896C146.16 238.896 121.363 180.533 115.013 163.296Z" fill="#CCABD8"/>
<path d="M234.259 120.053L237.687 147.773C224.583 146.059 214.099 150.797 208.757 160.978C203.213 171.461 204.725 184.262 212.587 193.234C220.551 202.104 231.941 204.422 244.239 199.483L248.371 232.848L124.992 248.27L110.88 135.374C112.795 135.173 140.213 131.746 149.991 130.536C154.728 130.032 158.155 125.798 157.551 121.061C157.551 120.658 157.45 120.254 157.349 119.952C156.845 118.238 156.24 116.626 155.434 115.013C151.503 107.352 152.611 98.6832 158.559 92.736C164.304 86.8896 173.275 85.4784 180.533 89.208C187.992 93.0384 192.125 101.304 190.613 109.67C190.311 111.283 190.008 112.795 189.706 114.408C188.899 119.75 193.637 125.899 200.088 124.488C206.338 123.178 227.506 120.96 234.259 120.053Z" fill="white"/>
<path d="M124.891 249.077C124.689 249.077 124.589 248.976 124.387 248.976C124.185 248.875 124.085 248.674 124.085 248.472L109.973 135.576C109.973 135.374 109.973 135.173 110.174 134.971C110.275 134.77 110.477 134.669 110.678 134.669L112.795 134.366L149.789 129.73C152.107 129.427 154.123 128.218 155.433 126.302C156.643 124.488 157.046 122.17 156.542 120.053C156.139 118.339 155.433 116.827 154.728 115.214C150.595 107.251 151.905 98.1792 157.953 92.0304C164.001 85.8816 173.275 84.4704 180.835 88.4016C188.597 92.4336 192.83 101.002 191.318 109.67C191.217 110.376 191.016 111.082 190.915 111.787C190.713 112.694 190.512 113.602 190.411 114.408C190.109 117.13 191.016 119.851 193.032 121.766C194.846 123.581 197.467 124.286 199.886 123.682C204.624 122.674 217.425 121.262 226.8 120.154C229.824 119.851 232.445 119.549 234.158 119.347C234.561 119.246 234.965 119.549 234.965 119.952L238.392 147.672C238.392 147.874 238.291 148.176 238.19 148.277C237.989 148.478 237.787 148.478 237.585 148.478C224.885 146.765 214.603 151.502 209.361 161.381C204.019 171.662 205.43 184.061 212.99 192.83C220.651 201.499 231.941 203.717 243.835 198.878C244.037 198.778 244.339 198.778 244.541 198.979C244.742 199.08 244.843 199.282 244.944 199.584L248.976 232.848C249.077 233.251 248.774 233.654 248.371 233.654L124.891 249.077ZM111.686 136.08L125.597 247.464L247.464 232.344L243.533 200.693C231.336 205.229 219.945 202.709 211.982 193.838C204.019 184.666 202.507 171.461 208.051 160.675C213.494 150.494 223.877 145.454 236.779 146.966L233.553 120.96L226.901 121.766C218.131 122.774 204.825 124.286 200.189 125.294C197.265 126 194.141 125.093 192.024 122.976C189.705 120.758 188.496 117.533 188.899 114.307C189 113.4 189.201 112.493 189.403 111.586C189.504 110.88 189.705 110.275 189.806 109.57C191.217 101.606 187.286 93.6432 180.129 89.9136C173.073 86.2848 164.505 87.5952 158.961 93.24C153.317 98.9856 152.107 107.15 155.937 114.71C156.744 116.323 157.449 118.037 157.953 119.851C158.659 122.371 158.155 125.194 156.643 127.31C155.131 129.629 152.712 131.04 149.99 131.443C141.523 132.552 120.053 135.173 112.997 136.08H111.686Z" fill="#045A5C"/>
<path d="M93.2401 155.03V144.245C93.2401 144.245 108.763 147.37 106.747 129.83C104.731 112.291 98.0785 105.235 96.9697 105.538L75.2977 111.989L73.1809 153.216C73.1809 153.216 83.9665 169.949 93.2401 155.03Z" fill="white"/>
<path d="M84.5713 161.986C78.0193 161.986 72.7777 153.922 72.4753 153.619C72.3745 153.518 72.3745 153.317 72.3745 153.216L74.4913 112.09C74.4913 111.787 74.6929 111.485 74.9953 111.384L96.7681 104.832C97.2721 104.731 97.6753 104.832 98.0785 105.134C100.901 106.949 105.941 115.315 107.554 129.73C108.259 135.475 107.05 139.709 104.227 142.33C100.8 145.454 95.9617 145.354 94.0465 145.051V154.93C94.0465 155.03 94.0465 155.232 93.9457 155.333C91.2241 159.667 88.0993 161.885 84.5713 161.986ZM73.9873 152.914C74.7937 154.123 79.4305 160.373 84.6721 160.373C87.4945 160.373 90.1153 158.458 92.5345 154.728V144.245C92.5345 144.043 92.6353 143.842 92.8369 143.64C93.0385 143.539 93.2401 143.438 93.4417 143.438C93.5425 143.438 99.4897 144.648 103.219 141.221C105.639 139.003 106.647 135.173 106.042 129.931C104.127 112.997 98.0785 106.747 97.0705 106.344L76.0033 112.694L73.9873 152.914Z" fill="#231F20"/>
<path d="M76.2049 123.581C75.4993 120.254 70.5601 119.146 68.0401 121.464C65.5201 123.782 66.1249 128.318 68.8465 130.435C71.5681 132.552 75.6001 132.35 78.3217 130.334" fill="white"/>
<path d="M73.3825 132.653C71.5681 132.653 69.7537 132.048 68.3425 130.939C66.7297 129.629 65.8225 127.714 65.7217 125.698C65.6209 123.883 66.2257 122.17 67.5361 120.859C69.0481 119.448 71.2657 119.045 73.2817 119.65C75.0961 120.154 76.5073 121.565 77.0113 123.379C77.1121 123.782 76.8097 124.186 76.4065 124.286C76.0033 124.387 75.6001 124.085 75.4993 123.682C75.1969 122.371 74.1889 121.464 72.8785 121.162C71.4673 120.658 69.8545 120.96 68.6449 121.968C67.7377 122.976 67.2337 124.286 67.3345 125.698C67.4353 127.31 68.1409 128.822 69.3505 129.83C71.9713 131.645 75.3985 131.544 77.9185 129.73C78.2209 129.528 78.7249 129.629 78.9265 129.931C79.1281 130.234 79.0273 130.738 78.7249 130.939C77.1121 132.048 75.2977 132.653 73.3825 132.653Z" fill="#231F20"/>
<path d="M90.6191 119.448C91.9295 121.162 93.1391 122.875 94.3487 124.69C95.0543 125.496 95.2559 126.504 95.0543 127.512C94.6511 128.318 93.9455 128.822 93.0383 129.024C92.3327 129.326 91.5263 129.024 91.0223 128.52" fill="white"/>
<path d="M92.3327 129.83C91.5263 129.931 90.7199 129.528 90.3167 128.822C90.1151 128.419 90.2159 128.016 90.6191 127.814C91.0223 127.613 91.4255 127.714 91.6271 128.117C91.8287 128.318 92.3327 128.419 92.8367 128.318C93.4415 128.218 94.0463 127.915 94.3487 127.31C94.5503 126.706 94.1471 125.899 93.6431 125.194C92.5343 123.379 91.3247 121.666 90.0143 120.053C89.8127 119.75 89.8127 119.347 90.1151 119.045C90.4175 118.843 90.8207 118.843 91.1231 119.146C92.4335 120.859 93.7439 122.573 94.8527 124.387C95.6591 125.395 95.9615 126.605 95.6591 127.814C95.1551 128.822 94.1471 129.629 93.0383 129.73C92.8367 129.83 92.5343 129.83 92.3327 129.83Z" fill="#231F20"/>
<path d="M85.8831 119.65C86.3841 119.649 86.7897 119.062 86.7889 118.338C86.7882 117.615 86.3814 117.028 85.8803 117.029C85.3793 117.029 84.9738 117.616 84.9745 118.34C84.9753 119.064 85.3821 119.65 85.8831 119.65Z" fill="#231F20"/>
<path d="M96.2817 118.744C96.7808 118.7 97.1334 118.079 97.0694 117.359C97.0053 116.638 96.5487 116.089 96.0497 116.134C95.5506 116.178 95.1979 116.798 95.262 117.519C95.3261 118.24 95.7826 118.788 96.2817 118.744Z" fill="#231F20"/>
<path d="M63.2016 125.698C62.0928 125.698 60.6816 125.093 59.2704 122.573C57.7584 120.154 56.6496 117.432 56.0448 114.61C55.44 111.586 56.2464 108.461 58.2624 106.142C60.0768 104.227 62.7984 103.622 65.3184 104.53C65.1168 100.598 66.4272 96.6672 69.048 93.6432C72.072 90.0144 76.2048 87.5952 79.5312 85.8816C84.168 83.4624 89.1072 81.5472 94.1472 80.0352C97.3728 79.128 100.901 78.3216 104.126 79.3296C109.771 81.0432 112.594 87.192 112.896 92.232C113.299 99.792 109.57 106.848 103.32 110.981C102.917 111.182 102.514 111.082 102.312 110.779C102.11 110.376 102.211 109.973 102.514 109.771C108.36 105.941 111.686 99.288 111.384 92.3328C111.082 87.7968 108.562 82.2528 103.723 80.8416C100.8 79.9344 97.5744 80.64 94.5504 81.5472C89.6112 82.9584 84.7728 84.8736 80.136 87.2928C77.0112 88.9056 72.9792 91.224 70.1568 94.6512C67.3344 98.0784 66.2256 102.312 67.032 105.941C67.1328 106.243 66.9312 106.646 66.7296 106.747C66.4272 106.949 66.1248 106.848 65.8224 106.646C64.1088 105.134 61.0848 105.437 59.2704 107.352C57.5568 109.368 56.8512 111.989 57.456 114.509C58.0608 117.13 59.0688 119.65 60.5808 121.968C61.2864 123.178 62.2944 124.488 63.4032 124.286C63.8064 124.186 64.2096 124.488 64.3104 124.891C64.4112 125.294 64.1088 125.698 63.7056 125.798C63.6048 125.798 63.4032 125.798 63.2016 125.698Z" fill="#231F20"/>
<path d="M93.2399 144.245C93.2399 144.245 86.4863 142.531 82.2527 139.91C82.2527 139.91 82.0511 147.067 93.0383 150.494L93.2399 144.245Z" fill="#231F20"/>
<path d="M93.1392 151.2C93.0384 151.2 93.0384 151.2 92.9376 151.2C81.5472 147.672 81.648 140.213 81.648 139.91C81.648 139.507 81.9504 139.205 82.3536 139.205C82.4544 139.205 82.5552 139.205 82.656 139.306C86.688 141.826 93.3408 143.539 93.4416 143.539C93.744 143.64 93.9456 143.942 93.9456 144.245L93.8448 150.494C93.8448 150.696 93.744 150.898 93.5424 151.099C93.4416 151.2 93.24 151.2 93.1392 151.2ZM83.16 141.221C83.664 143.237 85.4784 147.168 92.4336 149.587L92.5344 144.749C89.3088 143.942 86.184 142.733 83.16 141.221Z" fill="#231F20"/>
<path d="M64.6125 196.56C64.6125 196.56 102.715 240.408 126.403 229.522C150.091 218.635 185.069 175.594 185.069 175.594C185.069 175.594 196.056 164.102 193.939 163.498C191.822 162.893 184.464 169.848 184.464 169.848C184.464 169.848 192.629 160.07 189.504 160.07C186.379 160.07 180.331 167.328 180.331 167.328C180.331 167.328 190.109 156.341 185.976 156.946C181.843 157.55 176.803 163.598 176.803 163.598C176.803 163.598 186.581 154.123 182.75 154.426C178.92 154.728 168.84 164.203 168.84 164.203C168.84 164.203 172.973 154.728 169.747 155.03C166.521 155.333 165.917 163.901 161.28 168.235C156.643 172.57 126 202.003 120.254 201.6C114.509 201.197 89.3085 174.182 89.3085 174.182" fill="white"/>
<path d="M118.037 231.941C94.752 231.941 65.4192 198.576 64.008 196.963C63.7056 196.661 63.8064 196.157 64.1088 195.854C64.4112 195.552 64.9152 195.653 65.2176 195.955C65.6208 196.358 103.219 239.198 126.101 228.715C149.285 218.03 184.162 175.493 184.464 174.989C188.496 170.755 192.83 165.614 193.334 164.002C191.923 164.203 187.992 167.227 184.968 170.15C184.666 170.352 184.162 170.352 183.859 169.949C183.658 169.747 183.658 169.344 183.859 169.142C186.984 165.514 189.403 161.683 189.504 160.675C187.69 160.776 184.464 163.8 182.146 166.32C181.742 166.824 181.339 167.227 180.936 167.731C180.634 168.034 180.13 168.034 179.827 167.832C179.525 167.53 179.525 167.026 179.726 166.723C179.827 166.522 180.23 166.118 180.835 165.413C183.859 161.885 186.077 158.558 186.278 157.55H186.178C184.262 157.853 182.045 159.466 180.432 160.978C179.525 161.986 178.416 162.994 177.509 164.002C177.206 164.304 176.702 164.203 176.4 163.901C176.198 163.598 176.198 163.296 176.4 162.994C177.307 161.986 178.214 160.978 179.222 160.07C181.138 157.954 182.851 155.938 183.053 155.03C180.13 155.232 172.368 161.986 169.646 164.606C169.344 164.909 168.941 164.909 168.638 164.707C168.336 164.506 168.235 164.102 168.437 163.8C169.848 160.574 170.957 156.542 170.352 155.736C170.352 155.736 170.352 155.736 170.15 155.736C169.042 155.837 168.034 158.054 167.026 160.474C165.917 163.195 164.506 166.522 162.086 168.739L160.474 170.251C137.29 192.125 124.589 202.306 120.658 202.406H120.557C114.71 202.104 91.728 177.509 89.1072 174.787C88.8048 174.485 88.8048 173.981 89.1072 173.678C89.4096 173.376 89.9136 173.376 90.216 173.678C100.296 184.464 116.626 200.693 120.557 200.894C122.774 200.995 131.342 195.653 159.365 169.243L160.978 167.731C163.195 165.614 164.506 162.59 165.614 159.97C166.925 156.946 167.933 154.526 169.949 154.325C170.554 154.224 171.158 154.526 171.562 154.93C172.469 156.139 171.763 159.062 170.957 161.482C174.283 158.558 180.029 153.922 182.952 153.619C183.557 153.518 184.262 153.821 184.565 154.325C184.867 154.93 184.565 155.736 183.859 156.845C184.565 156.542 185.27 156.24 186.077 156.139C186.682 155.938 187.387 156.24 187.79 156.744C188.194 157.45 187.69 158.76 186.782 160.272C187.589 159.667 188.597 159.264 189.605 159.163C190.21 159.163 190.714 159.466 190.915 159.97C191.318 160.877 190.512 162.792 189.202 164.808C191.117 163.397 193.032 162.389 194.242 162.691C194.645 162.792 194.947 163.094 195.048 163.498C195.552 165.514 189.504 172.267 185.774 176.098C185.774 176.198 176.904 186.984 165.312 198.979C149.688 215.107 136.786 225.59 126.907 230.126C123.984 231.437 121.061 232.042 118.037 231.941Z" fill="#231F20"/>
<path d="M97.9774 136.08C97.7758 136.282 97.675 136.584 97.4734 136.786C93.139 141.926 87.9982 137.189 85.1758 133.358C85.4782 133.762 91.3246 132.048 91.9294 131.947L99.187 130.435C99.691 132.048 98.9854 134.467 97.9774 136.08Z" fill="#231F20"/>
<path d="M144.043 422.15L145.253 435.456C145.253 435.456 207.446 426.686 204.826 424.066C202.205 421.445 179.626 414.893 179.626 414.893" fill="white"/>
<path d="M145.253 436.262C145.051 436.262 144.95 436.162 144.749 436.061C144.547 435.96 144.446 435.758 144.446 435.557L143.237 422.15C143.237 421.747 143.539 421.344 143.942 421.344C144.346 421.344 144.749 421.646 144.749 422.05L145.858 434.65C166.723 431.726 199.181 426.485 203.717 424.267C200.592 422.251 187.79 418.118 179.323 415.699C178.92 415.598 178.718 415.195 178.819 414.792C178.92 414.389 179.323 414.187 179.726 414.288C182.045 414.994 202.608 420.941 205.229 423.662C205.531 423.965 205.632 424.267 205.43 424.67C205.128 425.477 204.725 426.888 174.686 431.827C160.07 434.246 145.354 436.262 145.253 436.363V436.262Z" fill="#231F20"/>
<path d="M93.6429 427.19V438.077L37.2957 438.48C37.2957 438.48 47.1741 429.005 56.6493 425.275" fill="white"/>
<path d="M37.2959 439.286C36.9935 439.286 36.6911 439.085 36.5903 438.782C36.4895 438.48 36.4895 438.178 36.7919 437.976C37.1951 437.573 46.9727 428.4 56.4479 424.57C56.8511 424.368 57.2543 424.57 57.4559 424.973C57.6575 425.376 57.4559 425.779 57.0527 425.981C57.0527 425.981 57.0527 425.981 56.9519 425.981C49.8959 428.803 42.3359 435.053 39.3119 437.774L92.8367 437.27V427.09C92.8367 426.686 93.1391 426.283 93.6431 426.283C94.1471 426.283 94.4495 426.586 94.4495 427.09V437.976C94.4495 438.379 94.1471 438.682 93.6431 438.782L37.2959 439.286Z" fill="#231F20"/>
<path d="M97.9777 282.744C93.7441 282.744 91.0225 282.643 91.0225 282.643C90.6193 282.643 90.3169 282.24 90.3169 281.837C90.3169 281.434 90.7201 281.131 91.1233 281.131C98.8849 281.434 106.646 281.232 114.307 280.526C114.71 280.426 115.114 280.728 115.214 281.131C115.315 281.534 115.013 281.938 114.61 282.038H114.509C108.158 282.542 102.312 282.744 97.9777 282.744Z" fill="white"/>
<path d="M60.6815 193.133C60.4799 193.133 60.1775 193.032 60.0767 192.83C53.9279 184.666 49.0895 177.106 48.9887 177.005C48.7871 176.602 48.8879 176.198 49.1903 175.997C49.5935 175.795 49.9967 175.896 50.1983 176.198C50.1983 176.299 55.1375 183.859 61.1855 191.923C61.3871 192.226 61.3871 192.73 60.9839 192.931C60.9839 193.032 60.7823 193.133 60.6815 193.133Z" fill="#231F20"/>
<path d="M372.557 287.078L338.083 412.373C338.083 412.373 310.867 418.723 311.472 420.437C312.077 422.15 354.312 427.896 354.312 427.896L397.253 298.066" fill="white"/>
<path d="M354.413 428.702H354.312C311.573 422.957 310.968 421.243 310.867 420.739C310.766 420.437 310.867 420.235 310.968 419.933C312.077 417.917 329.616 413.683 337.579 411.768L371.952 286.877C372.053 286.474 372.557 286.272 372.96 286.474C373.262 286.574 373.464 286.978 373.464 287.28L338.99 412.574C338.89 412.877 338.688 413.078 338.386 413.078C327.499 415.598 315.706 418.824 312.883 420.235C317.318 421.747 339.595 425.074 354.01 426.989L396.749 297.763C396.85 297.36 397.253 297.158 397.656 297.259C398.059 297.36 398.261 297.763 398.16 298.166V298.267L355.219 428.098C355.018 428.501 354.715 428.702 354.413 428.702Z" fill="#231F20"/>
<path d="M446.141 281.837L455.112 427.896C455.112 427.896 412.575 437.069 412.474 435.96C412.373 434.851 435.355 418.421 435.355 418.421L418.018 283.55" fill="white"/>
<path d="M412.776 436.867C412.574 436.867 412.272 436.867 412.07 436.766C411.869 436.666 411.768 436.464 411.667 436.262C411.566 435.758 411.466 434.75 434.549 418.32L417.211 283.853C417.11 283.45 417.413 283.046 417.816 283.046C418.219 282.946 418.622 283.248 418.622 283.651L435.96 418.622C435.96 418.925 435.859 419.126 435.658 419.328C428.501 424.368 417.513 432.432 414.086 435.456C419.933 434.75 440.597 430.416 454.205 427.493L445.334 282.038C445.334 281.635 445.637 281.232 446.04 281.232C446.443 281.232 446.846 281.534 446.846 281.938L455.818 428.098C455.818 428.501 455.616 428.803 455.213 428.904C430.315 434.045 416.002 436.867 412.776 436.867Z" fill="#231F20"/>
<path d="M377.395 159.97C375.178 160.675 373.061 161.28 370.843 161.885C353.304 166.522 335.362 169.243 317.218 168.739C311.17 168.638 303.106 168.739 297.562 166.118C293.227 164.102 289.195 160.474 285.163 157.853C284.155 157.147 282.543 156.643 281.938 157.752C281.535 158.558 282.139 159.566 282.845 160.171C285.163 162.49 287.683 164.707 290.304 166.622C285.163 165.715 279.922 165.312 274.68 165.211C274.479 165.211 274.176 165.211 273.974 165.312C273.37 165.715 274.176 166.622 274.882 166.925C276.495 167.53 278.107 168.134 279.821 168.538C278.208 168.034 276.595 167.731 274.982 167.731C274.277 167.731 273.37 167.832 273.067 168.437C272.664 169.344 273.773 170.251 274.68 170.654C276.192 171.259 277.805 171.864 279.418 172.267C277.503 172.267 275.688 172.469 273.874 172.973C273.571 173.074 273.269 173.174 273.067 173.477C272.866 173.678 272.866 173.981 272.866 174.283C272.967 175.795 274.579 176.904 276.091 177.206C277.603 177.408 279.216 177.71 280.728 178.013C279.317 178.114 277.906 177.61 276.494 177.71C275.083 177.811 273.571 178.92 273.874 180.331C274.075 181.541 275.587 182.045 276.696 182.246C300.183 187.488 324.274 189.605 348.365 188.294C360.36 187.69 372.355 186.278 384.149 184.061C394.834 182.045 405.821 180.331 412.978 171.36C413.482 170.654 413.986 169.949 414.49 169.243C416.103 166.824 417.413 164.002 416.808 161.179C414.994 152.51 403.503 153.317 396.951 154.526C390.398 155.736 383.847 157.954 377.395 159.97Z" fill="white"/>
<path d="M334.354 189.302C314.899 189.302 295.445 187.186 276.494 182.851C275.184 182.549 273.37 181.944 273.067 180.331C272.966 179.626 273.067 178.92 273.571 178.315C273.874 177.912 274.277 177.61 274.68 177.408C273.269 176.904 272.362 175.694 272.16 174.182C272.059 173.678 272.16 173.275 272.462 172.872C272.765 172.469 273.168 172.267 273.672 172.166C274.277 171.965 274.982 171.864 275.587 171.763C275.184 171.662 274.781 171.461 274.378 171.36C273.47 171.058 272.765 170.352 272.261 169.546C272.059 169.142 272.059 168.638 272.261 168.134C272.563 167.63 273.067 167.227 273.571 167.126C273.269 166.824 273.067 166.421 272.966 166.018C272.866 165.614 273.067 165.11 273.47 164.808C273.773 164.606 274.176 164.506 274.579 164.506C278.813 164.506 283.147 164.909 287.381 165.413C285.566 164.002 283.853 162.389 282.24 160.776C280.728 159.264 280.829 158.155 281.232 157.45C281.434 156.946 281.938 156.643 282.442 156.542C283.55 156.442 284.659 156.744 285.566 157.349C286.978 158.256 288.288 159.264 289.699 160.272C292.219 162.288 294.941 164.002 297.864 165.514C302.602 167.731 309.456 167.832 315 167.933H317.218C334.051 168.336 351.59 166.118 370.642 161.078C372.557 160.574 374.573 159.97 377.194 159.163C378.403 158.76 379.714 158.357 380.923 157.954C386.064 156.24 391.406 154.728 396.749 153.619C402.293 152.51 415.498 151.099 417.514 160.877C418.018 163.498 417.211 166.421 415.094 169.546C414.59 170.251 414.086 170.957 413.482 171.662C406.325 180.432 395.741 182.448 385.459 184.363L384.149 184.565C372.254 186.782 360.259 188.194 348.264 188.798C343.627 189.202 338.99 189.302 334.354 189.302ZM276.797 178.416H276.494C275.789 178.517 275.184 178.819 274.781 179.323C274.579 179.525 274.478 179.827 274.579 180.13C274.68 180.734 275.486 181.238 276.898 181.541C300.283 186.782 324.374 188.899 348.365 187.589C360.36 186.984 372.254 185.573 384.048 183.355L385.358 183.154C395.338 181.238 405.619 179.323 412.474 170.957C412.978 170.352 413.482 169.646 413.986 168.941C415.901 166.118 416.606 163.598 416.203 161.381C414.49 153.014 402.293 154.325 397.152 155.333C391.81 156.442 386.669 157.853 381.528 159.667C380.318 160.07 379.008 160.474 377.798 160.877C375.178 161.683 373.162 162.288 371.246 162.792C351.994 167.832 334.354 170.05 317.318 169.646H315.101C309.456 169.546 302.4 169.445 297.36 167.026C294.437 165.514 291.614 163.699 288.994 161.582C287.582 160.574 286.272 159.566 284.962 158.659C284.458 158.256 283.752 158.054 283.046 158.054C282.946 158.054 282.845 158.155 282.845 158.256C282.643 158.558 282.946 159.163 283.651 159.768C285.97 162.086 288.389 164.203 291.01 166.118C291.312 166.32 291.413 166.723 291.312 167.026C291.211 167.328 290.808 167.53 290.506 167.429C285.365 166.522 280.224 166.118 275.083 166.018C275.184 166.118 275.386 166.219 275.486 166.32C276.595 166.723 277.603 167.126 278.712 167.429C279.216 167.53 279.821 167.731 280.325 167.832C280.728 167.933 280.93 168.336 280.829 168.739C280.728 169.142 280.325 169.344 279.922 169.243C279.418 169.142 278.914 168.941 278.41 168.84C277.402 168.638 276.293 168.437 275.285 168.437C274.68 168.437 274.176 168.538 274.075 168.739C274.075 168.84 274.075 168.84 274.075 168.941C274.378 169.445 274.781 169.747 275.386 169.949C276.898 170.554 278.51 171.058 280.022 171.562C280.426 171.662 280.627 172.066 280.526 172.368C280.426 172.771 280.123 172.973 279.72 172.973C277.906 172.973 276.091 173.174 274.378 173.678C274.176 173.678 274.075 173.779 273.974 173.88C273.974 173.981 273.974 174.082 273.974 174.182C274.075 175.291 275.386 176.198 276.595 176.501C277.2 176.602 277.805 176.702 278.41 176.803C279.317 176.904 280.325 177.106 281.232 177.408C281.534 177.509 281.736 177.912 281.736 178.214C281.635 178.517 281.434 178.819 281.03 178.819C280.224 178.819 279.518 178.819 278.813 178.618C277.906 178.517 277.301 178.416 276.797 178.416Z" fill="#231F20"/>
<path d="M329.112 411.869L334.858 420.638L357.236 423.259L355.018 431.827C355.018 431.827 305.727 425.678 304.618 421.142C303.509 416.606 329.112 411.869 329.112 411.869Z" fill="#231F20"/>
<path d="M389.491 146.966C389.491 146.966 373.968 150.595 369.331 160.272C364.694 169.949 370.238 221.256 370.238 221.256L438.984 224.179C438.984 224.179 446.04 186.379 442.613 170.15C439.186 153.922 425.376 132.25 389.491 146.966Z" fill="#CCABD8"/>
<path d="M391.508 138.298L387.072 152.712C387.072 152.712 387.173 161.179 396.548 160.272C402.192 159.667 407.232 156.542 410.256 151.704L413.583 126C412.071 124.79 411.164 123.077 410.861 121.162C410.66 119.75 410.66 118.339 410.861 116.928C410.962 116.424 411.567 113.198 412.172 113.098C408.543 113.702 404.914 112.392 402.293 109.771C400.983 108.259 399.874 106.546 399.068 104.63C398.463 103.421 397.858 102.11 398.261 100.8C395.338 102.715 392.415 104.731 389.693 106.848C388.181 107.957 386.77 109.267 385.56 110.678C383.544 113.299 383.04 116.827 382.536 119.952C381.932 123.682 381.629 127.512 381.73 131.242C382.133 138.398 391.508 138.298 391.508 138.298Z" fill="white"/>
<path d="M395.136 160.978C392.919 161.078 390.802 160.373 389.189 158.962C387.475 157.349 386.467 155.03 386.367 152.712C386.367 152.611 386.367 152.611 386.367 152.51L390.499 139.003C386.871 138.802 381.327 136.987 381.125 131.242C381.024 127.411 381.327 123.581 381.931 119.851C382.435 116.827 382.939 112.997 385.056 110.174C386.266 108.662 387.778 107.251 389.29 106.142C392.112 104.026 394.935 101.909 397.959 100.094C398.16 99.8928 398.563 99.8928 398.765 100.094C398.967 100.296 399.067 100.598 398.967 100.901C398.866 102.01 399.067 103.219 399.773 104.227C400.579 106.042 401.587 107.654 402.898 109.166C405.317 111.586 408.744 112.795 412.071 112.291C412.474 112.19 412.877 112.493 412.877 112.896C412.978 113.198 412.776 113.501 412.474 113.702C412.071 114.71 411.667 115.819 411.567 117.029C411.365 118.339 411.365 119.75 411.567 121.061C411.768 122.774 412.675 124.286 413.986 125.395C414.187 125.597 414.288 125.798 414.288 126.101L410.962 151.805C410.962 151.906 410.962 152.006 410.861 152.107C407.736 157.046 402.394 160.373 396.547 160.978C396.144 160.978 395.64 160.978 395.136 160.978ZM387.879 152.813C387.979 154.728 388.786 156.542 390.197 157.954C391.709 159.264 393.826 159.869 396.547 159.566C401.89 158.962 406.728 155.938 409.651 151.502L412.877 126.302C411.466 124.992 410.559 123.178 410.256 121.262C409.954 119.75 409.954 118.238 410.256 116.726C410.357 115.718 410.659 114.811 410.962 113.904C407.535 114.005 404.309 112.694 401.89 110.174C400.479 108.562 399.37 106.848 398.563 104.933C398.059 104.026 397.757 103.118 397.555 102.11C395.035 103.723 392.616 105.538 390.197 107.352C388.685 108.461 387.375 109.67 386.165 111.082C384.25 113.501 383.746 117.029 383.343 120.053C382.738 123.782 382.435 127.512 382.536 131.242C382.738 137.693 391.104 137.592 391.407 137.592C391.608 137.592 391.81 137.693 392.011 137.894C392.112 138.096 392.213 138.298 392.112 138.499L387.879 152.813Z" fill="#231F20"/>
<path d="M408.643 123.782C409.047 122.774 409.853 121.867 410.76 121.262C411.667 120.758 412.675 120.456 413.683 120.254C414.288 120.053 414.792 120.053 415.397 120.154C415.8 120.254 416.203 120.456 416.506 120.758C417.312 121.262 417.917 122.069 418.119 122.976C418.219 123.782 418.119 124.488 417.917 125.294C417.715 126.101 417.413 126.907 417.01 127.613C415.195 130.637 411.365 131.645 408.341 129.83C408.341 129.83 408.24 129.83 408.24 129.73" fill="white"/>
<path d="M411.567 131.443C410.256 131.443 408.946 131.141 407.837 130.435C407.535 130.234 407.434 129.73 407.635 129.427C407.837 129.125 408.24 129.024 408.643 129.226C411.264 130.838 414.691 130.032 416.304 127.411C416.304 127.411 416.304 127.411 416.304 127.31C416.707 126.605 417.01 125.899 417.211 125.194C417.413 124.589 417.514 123.883 417.413 123.278C417.211 122.573 416.707 121.867 416.002 121.464C415.8 121.262 415.498 121.162 415.195 121.061C414.691 120.96 414.288 121.061 413.784 121.162C412.877 121.363 411.869 121.666 411.063 122.069C410.256 122.573 409.551 123.379 409.248 124.286C409.147 124.69 408.643 124.891 408.24 124.69C407.837 124.589 407.635 124.186 407.837 123.782C407.837 123.782 407.837 123.782 407.837 123.682C408.341 122.472 409.147 121.464 410.256 120.758C411.264 120.154 412.373 119.851 413.482 119.65C414.187 119.448 414.792 119.448 415.498 119.549C416.002 119.65 416.405 119.952 416.808 120.254C417.715 120.859 418.421 121.867 418.723 122.976C418.824 123.883 418.824 124.79 418.522 125.597C418.32 126.504 417.917 127.31 417.514 128.117C416.506 129.73 414.994 130.939 413.079 131.342C412.675 131.342 412.071 131.443 411.567 131.443Z" fill="#231F20"/>
<path d="M389.29 144.95C392.616 145.757 396.144 145.152 399.067 143.136C403.603 139.81 403.704 135.677 403.704 135.677C403.704 135.677 396.648 140.213 390.802 138.197L389.29 144.95Z" fill="#231F20"/>
<path d="M392.213 145.958C391.104 145.958 390.096 145.858 389.088 145.555C388.786 145.454 388.584 145.051 388.584 144.749L390.096 138.096C390.096 137.894 390.298 137.693 390.399 137.592C390.6 137.491 390.802 137.491 391.003 137.491C396.447 139.406 403.301 135.072 403.301 135.072C403.503 134.971 403.805 134.971 404.007 135.072C404.208 135.173 404.41 135.475 404.41 135.677C404.41 135.878 404.208 140.213 399.471 143.64C397.354 145.253 394.834 146.059 392.213 145.958ZM390.096 144.346C393.019 144.95 396.144 144.245 398.563 142.531C400.479 141.221 401.991 139.205 402.696 136.987C400.479 138.197 395.64 140.213 391.205 139.003L390.096 144.346Z" fill="#231F20"/>
<path d="M397.253 113.602C397.253 113.602 391.306 119.851 392.213 121.262C393.12 122.674 396.446 122.371 396.446 122.371" fill="white"/>
<path d="M395.741 123.178C394.531 123.178 392.415 122.976 391.608 121.666C390.6 120.053 393.826 116.122 396.749 112.997C397.051 112.694 397.555 112.795 397.858 113.098C398.059 113.4 398.059 113.702 397.858 114.005C395.136 116.928 392.818 120.053 392.919 120.859C393.423 121.565 395.439 121.666 396.447 121.565C396.85 121.565 397.253 121.867 397.253 122.27C397.253 122.674 396.951 123.077 396.547 123.077C396.346 123.178 396.144 123.178 395.741 123.178Z" fill="#231F20"/>
<path d="M406.182 115.783C406.535 114.905 406.319 113.991 405.699 113.742C405.08 113.493 404.291 114.002 403.938 114.88C403.584 115.758 403.8 116.672 404.42 116.921C405.04 117.171 405.829 116.661 406.182 115.783Z" fill="#231F20"/>
<path d="M391.438 114.903C391.791 114.025 391.575 113.111 390.956 112.862C390.336 112.613 389.547 113.122 389.194 114C388.841 114.878 389.057 115.792 389.676 116.042C390.296 116.291 391.085 115.781 391.438 114.903Z" fill="#231F20"/>
<path d="M388.181 126.202L399.975 125.798C399.975 125.798 399.672 133.862 392.818 134.366C385.964 134.87 388.181 126.202 388.181 126.202Z" fill="#231F20"/>
<path d="M432.029 223.474C432.029 223.474 448.661 241.92 453.197 262.282C462.874 305.122 463.176 370.541 463.176 370.541L337.277 361.57L367.114 220.046L432.029 223.474Z" fill="#231F20"/>
<path d="M455.112 213.797C452.592 213.797 450.072 213.394 447.754 212.587C447.351 212.486 447.149 211.982 447.25 211.579C447.351 211.176 447.855 210.974 448.258 211.075C456.927 214.099 467.712 210.874 473.76 203.414C479.506 196.258 481.018 185.472 477.389 176.501C473.76 167.53 465.999 160.978 458.539 154.728C457.229 153.619 455.919 152.51 454.608 151.402C445.234 143.338 440.194 135.374 437.775 124.79C435.456 114.912 432.735 104.63 427.392 97.0703C422.856 90.8207 411.97 83.6639 403.805 86.9903C401.285 88.1999 398.967 89.7119 396.951 91.5263C396.749 91.6271 396.547 91.7279 396.346 91.7279C391.911 90.9215 387.475 90.9215 383.04 91.6271C378.706 92.3327 374.775 94.6511 372.154 98.0783C369.432 101.909 369.13 106.949 369.331 110.376C369.331 110.779 369.533 113.198 370.843 113.299C371.247 113.299 371.549 113.702 371.549 114.106C371.549 114.509 371.146 114.811 370.743 114.811C369.13 114.61 368.021 112.997 367.92 110.477C367.618 105.134 368.626 100.598 370.944 97.2719C373.464 93.6431 377.698 91.1231 382.738 90.1151C387.173 89.4095 391.709 89.4095 396.144 90.1151C398.261 88.1999 400.579 86.6879 403.2 85.4783C412.171 81.8495 423.663 89.3087 428.602 96.1631C434.146 103.925 436.867 114.307 439.287 124.387C441.706 134.568 446.544 142.33 455.717 150.192C457.027 151.301 458.338 152.41 459.648 153.518C467.309 159.97 475.171 166.622 478.901 175.896C482.731 185.472 481.32 196.661 475.071 204.322C470.031 210.269 462.773 213.696 455.112 213.797Z" fill="#231F20"/>
<path d="M459.044 429.912L457.733 421.042L431.828 428.198L426.788 421.546C426.788 421.546 407.736 435.355 410.357 438.278C412.978 441.202 441 435.859 459.044 429.912Z" fill="#231F20"/>
<path d="M259.661 119.246L293.53 120.758C289.8 133.56 292.723 144.043 301.896 150.998C311.573 158.054 324.475 158.558 334.656 152.309C344.131 146.261 347.962 135.979 345.442 123.077L372.557 124.286L367.618 237.082L254.722 232.142C254.722 231.235 254.823 230.429 254.823 229.522C255.327 218.534 255.831 207.648 256.234 196.661C256.335 194.947 256.032 193.334 255.427 191.722C254.319 189 251.698 188.093 248.976 189.403C241.517 192.931 232.042 190.512 226.699 183.658C221.357 176.702 221.458 167.126 226.901 160.272C232.143 153.619 241.315 151.502 248.976 155.232C254.319 157.853 257.947 155.837 258.25 149.789C258.754 140.314 259.157 130.738 259.56 121.262C259.661 120.658 259.661 120.154 259.661 119.246Z" fill="white"/>
<path d="M367.618 237.686L254.722 232.747C254.52 232.747 254.319 232.646 254.218 232.545C254.117 232.445 254.016 232.243 254.016 232.041L254.52 221.357C254.923 213.192 255.226 204.826 255.528 196.56C255.629 194.947 255.327 193.435 254.823 191.923C254.52 190.915 253.714 190.21 252.807 189.806C251.698 189.403 250.488 189.504 249.379 190.008C241.517 193.637 231.84 191.218 226.195 184.061C220.651 176.904 220.752 166.824 226.397 159.768C231.84 152.813 241.416 150.595 249.379 154.526C251.799 155.736 253.815 155.837 255.226 155.03C256.637 154.224 257.443 152.41 257.544 149.789C257.947 143.136 258.149 136.282 258.451 129.73C258.552 126.907 258.653 124.085 258.855 121.262L258.955 119.246C258.955 118.843 259.258 118.541 259.661 118.541L293.53 120.053C293.731 120.053 293.933 120.154 294.135 120.355C294.235 120.557 294.336 120.758 294.235 121.061C290.607 133.56 293.328 143.741 302.299 150.494C311.674 157.349 324.274 157.853 334.253 151.805C343.426 145.958 347.155 135.878 344.635 123.278C344.635 123.077 344.635 122.774 344.837 122.674C345.039 122.472 345.24 122.371 345.442 122.371L372.557 123.581C372.96 123.581 373.263 123.984 373.263 124.387L368.323 237.081C368.323 237.384 368.021 237.686 367.618 237.686ZM255.528 231.336L366.912 236.174L371.751 124.992L346.349 123.883C348.567 136.685 344.635 146.966 335.059 153.014C324.576 159.466 311.371 158.861 301.392 151.704C292.119 144.749 289.095 134.366 292.522 121.565L260.367 120.154V121.363L259.963 129.83C259.661 136.382 259.459 143.237 259.056 149.89C258.855 153.014 257.847 155.333 255.931 156.341C254.016 157.349 251.597 157.248 248.674 155.837C241.315 152.208 232.546 154.224 227.506 160.675C222.264 167.227 222.163 176.501 227.304 183.154C232.445 189.706 241.416 192.024 248.674 188.597C250.085 187.891 251.799 187.79 253.311 188.294C254.621 188.899 255.73 189.907 256.133 191.318C256.738 192.931 257.04 194.745 257.04 196.459C256.738 204.725 256.335 213.192 256.032 221.256L255.528 231.336Z" fill="#045A5C"/>
<path d="M413.482 157.55C412.575 159.062 411.768 160.675 410.962 162.288C404.007 177.005 394.935 195.149 376.791 197.77C364.09 199.584 351.087 197.165 339.091 192.931C335.362 191.722 331.834 189.907 328.608 187.69C324.778 184.766 321.552 180.432 318.226 177.005C317.319 176.098 315.907 175.291 315.101 176.198C314.496 176.904 315 178.013 315.403 178.718C317.117 181.541 319.133 184.162 321.351 186.581C318.629 185.472 315.907 184.565 313.085 183.658C311.775 183.254 306.936 181.541 305.626 181.642C305.122 181.642 304.719 181.843 304.315 182.045C303.912 182.347 303.811 182.851 304.013 183.254C304.114 183.456 304.315 183.557 304.517 183.658C306.432 184.867 308.448 185.875 310.666 186.48C308.751 185.573 306.735 184.968 304.618 184.867C303.711 184.867 302.602 184.968 302.299 185.875C301.997 186.782 302.904 187.69 303.711 188.194C305.525 189.302 307.541 190.21 309.658 190.915C308.045 190.109 306.331 189.403 304.618 188.798C303.509 188.395 302.098 188.194 301.493 189.202C301.09 189.806 301.09 190.613 301.493 191.218C301.896 191.822 302.501 192.326 303.106 192.629C304.819 193.637 306.533 194.544 308.448 195.149L303.207 193.435C302.501 193.032 301.594 193.032 300.888 193.435C300.082 194.04 300.384 195.451 300.989 196.258C302.098 197.87 304.013 198.475 305.727 199.382C308.045 200.491 310.464 201.499 312.883 202.406C329.213 208.757 343.426 217.829 361.267 219.341C381.024 220.954 403.2 215.611 417.917 201.802C426.787 193.435 436.061 178.92 434.448 166.018C433.944 161.784 433.239 155.938 429.509 153.216C425.578 150.293 418.32 151.704 415.095 155.131C414.691 155.837 414.087 156.643 413.482 157.55Z" fill="white"/>
<path d="M368.727 220.349C366.307 220.349 363.888 220.248 361.469 220.046C348.567 218.938 337.781 214.099 326.391 208.958C321.955 206.942 317.419 204.926 312.783 203.112L311.271 202.507C309.355 201.802 307.44 200.995 305.525 200.088C305.223 199.886 304.92 199.786 304.618 199.584C303.005 198.979 301.695 197.971 300.586 196.661C299.679 195.451 299.477 193.738 300.586 192.73C300.888 192.528 301.291 192.326 301.695 192.326C301.392 192.125 301.191 191.822 300.989 191.52C300.384 190.613 300.384 189.504 300.989 188.597C301.291 188.194 301.795 187.891 302.299 187.69C301.695 187.085 301.493 186.278 301.795 185.472C302.199 184.565 303.106 183.96 304.013 183.96C303.811 183.859 303.711 183.658 303.509 183.456C303.106 182.75 303.307 181.742 303.912 181.238C304.416 180.835 305.021 180.634 305.727 180.634C306.735 180.533 309.355 181.44 312.077 182.246C312.682 182.448 313.085 182.549 313.387 182.65C315.202 183.254 317.117 183.859 318.931 184.464C317.419 182.65 316.109 180.734 314.899 178.819C313.791 177.005 314.093 175.896 314.597 175.392C314.899 174.989 315.403 174.787 316.008 174.787C317.117 174.888 318.125 175.392 318.931 176.198C320.04 177.408 321.25 178.618 322.359 179.928C324.475 182.448 326.693 184.766 329.213 186.782C332.338 189 335.866 190.714 339.495 191.923C353.103 196.762 365.703 198.374 376.891 196.762C395.136 194.141 404.309 174.586 410.458 161.683C411.163 160.07 412.071 158.458 412.978 156.845C413.583 155.938 414.187 155.03 414.994 154.224C418.421 150.696 425.981 148.982 430.416 152.309C434.347 155.232 435.053 161.179 435.557 165.413V165.614C437.17 178.416 428.299 193.133 418.824 202.104C406.426 213.898 388.181 220.349 368.727 220.349ZM302.098 193.939C301.896 193.939 301.795 193.939 301.594 194.04C301.191 194.342 301.392 195.25 301.896 195.854C302.803 196.963 304.013 197.77 305.323 198.274L306.331 198.778C308.146 199.685 309.96 200.491 311.875 201.096L313.387 201.701C318.024 203.515 322.661 205.632 326.995 207.547C338.285 212.688 348.869 217.526 361.57 218.534C383.242 220.349 404.208 213.898 417.615 201.197C426.787 192.528 435.456 178.315 433.944 166.018V165.816C433.44 161.784 432.735 156.24 429.408 153.72C425.679 150.998 418.925 152.41 416.002 155.534C415.296 156.24 414.691 157.046 414.187 157.954C413.28 159.466 412.474 160.978 411.768 162.59C405.519 175.795 396.043 195.754 376.992 198.576C365.602 200.189 352.8 198.576 338.89 193.738C335.059 192.427 331.531 190.613 328.205 188.294C325.685 186.178 323.266 183.758 321.149 181.238C320.04 179.928 318.931 178.718 317.823 177.61C317.419 177.106 316.714 176.702 316.109 176.602C316.008 176.602 315.907 176.602 315.807 176.702C315.605 177.005 315.706 177.61 316.21 178.315C317.923 181.037 319.939 183.658 322.157 186.077C322.459 186.379 322.459 186.883 322.157 187.186C321.955 187.387 321.653 187.488 321.351 187.286C318.629 186.178 315.907 185.27 313.186 184.464L311.775 184.061C309.859 183.355 307.944 182.851 305.928 182.448C305.626 182.448 305.323 182.549 305.021 182.65C304.92 182.75 304.92 182.851 304.92 182.952C305.021 183.053 305.122 183.053 305.223 183.154C306.13 183.758 306.936 184.262 307.944 184.666C309.154 184.968 310.263 185.371 311.371 185.875C311.775 186.077 311.875 186.48 311.674 186.883C311.472 187.186 311.17 187.387 310.767 187.286C309.658 186.984 308.549 186.581 307.44 186.077C306.634 185.875 305.727 185.774 304.92 185.674C304.215 185.674 303.509 185.774 303.307 186.178C303.106 186.581 303.811 187.186 304.416 187.589C304.819 187.79 305.223 187.992 305.626 188.294C307.239 188.899 308.851 189.504 310.363 190.31C310.767 190.512 310.867 190.915 310.666 191.318C310.464 191.621 310.162 191.822 309.759 191.722C308.146 191.218 306.533 190.512 305.021 189.706L304.719 189.605C304.215 189.403 302.904 189.101 302.4 189.706C302.199 190.109 302.199 190.512 302.501 190.915C302.904 191.419 303.307 191.822 303.912 192.125C305.424 193.133 307.138 193.838 308.851 194.443L309.053 194.544C309.456 194.645 309.658 195.149 309.557 195.451C309.456 195.854 308.952 196.056 308.65 195.955L308.448 195.854L303.509 194.242C302.904 194.04 302.501 193.939 302.098 193.939Z" fill="#231F20"/>
<path d="M450.072 341.309C449.669 341.309 449.367 341.006 449.266 340.603C449.165 339.998 442.008 281.736 439.085 267.523C438.984 267.12 439.287 266.717 439.69 266.616C440.093 266.515 440.496 266.818 440.597 267.221C443.621 281.434 450.677 339.797 450.778 340.402C450.879 340.906 450.576 341.309 450.072 341.309Z" fill="white"/>
</svg>
