<svg width="157" height="196" viewBox="0 0 157 196" fill="none" xmlns="http://www.w3.org/2000/svg">
<path d="M95.5026 194.581C95.5473 195.408 96.2542 196.042 97.0814 195.998L110.562 195.269C111.389 195.224 112.023 194.517 111.979 193.69C111.934 192.863 111.227 192.229 110.4 192.273L98.4173 192.921L97.7696 180.939C97.7249 180.111 97.018 179.477 96.1908 179.522C95.3636 179.566 94.7292 180.273 94.774 181.1L95.5026 194.581ZM5.65562 2.0469C2.36782 4.99845 2.09524 10.0564 5.04678 13.3442C7.99832 16.632 13.0563 16.9046 16.3441 13.9531C19.6319 11.0015 19.9045 5.94353 16.9529 2.65574C14.0014 -0.632053 8.94341 -0.904639 5.65562 2.0469ZM10.9999 102.5L9.77202 103.362L10.9999 102.5ZM110.5 41.4997L110.517 42.9996L110.5 41.4997ZM10.9999 7.99998C9.56432 7.56497 9.56431 7.565 9.5643 7.56505C9.56429 7.56506 9.56428 7.56511 9.56427 7.56515C9.56424 7.56523 9.56421 7.56533 9.56418 7.56544C9.56412 7.56565 9.56403 7.56594 9.56392 7.56629C9.56371 7.56698 9.56343 7.56793 9.56306 7.56913C9.56234 7.57152 9.56131 7.57493 9.55998 7.57935C9.55732 7.58817 9.55346 7.60101 9.54842 7.61782C9.53836 7.65142 9.52359 7.70089 9.50437 7.76582C9.46593 7.89567 9.40964 8.08738 9.33735 8.33774C9.1928 8.83843 8.98425 9.57381 8.72657 10.5183L10.1737 10.9131L11.6208 11.3079C11.8744 10.3785 12.0789 9.65728 12.2196 9.1699C12.29 8.92621 12.3444 8.741 12.381 8.61745C12.3992 8.55567 12.4131 8.50931 12.4222 8.47877C12.4268 8.4635 12.4302 8.45218 12.4324 8.44487C12.4335 8.44121 12.4343 8.43856 12.4348 8.43691C12.4351 8.43608 12.4352 8.43551 12.4353 8.43519C12.4354 8.43503 12.4354 8.43494 12.4354 8.4349C12.4354 8.43489 12.4354 8.43489 12.4354 8.4349C12.4354 8.43491 12.4354 8.43493 12.4354 8.43494C12.4354 8.43496 12.4354 8.43499 10.9999 7.99998ZM8.66462 16.7676L7.20741 16.4119C6.7762 18.1784 6.3108 20.1682 5.83375 22.3424L7.2989 22.6639L8.76405 22.9854C9.2357 20.8357 9.69575 18.8688 10.1218 17.1233L8.66462 16.7676ZM6.06764 28.6036L4.59541 28.3163C4.22144 30.2326 3.85203 32.2408 3.49785 34.3227L4.97661 34.5742L6.45536 34.8258C6.80521 32.7694 7.17021 30.785 7.53986 28.8909L6.06764 28.6036ZM4.03548 40.5696L2.5507 40.3565C2.26729 42.3312 2.00406 44.3518 1.7687 46.4048L3.25894 46.5757L4.74918 46.7465C4.98108 44.7235 5.24062 42.7313 5.52027 40.7827L4.03548 40.5696ZM2.66186 52.6137L1.16695 52.4903C1.00027 54.5095 0.866117 56.5474 0.771382 58.5924L2.26977 58.6618L3.76817 58.7312C3.86112 56.7249 3.99285 54.723 4.15678 52.7371L2.66186 52.6137ZM2.11232 64.723L0.612337 64.7161C0.602947 66.7689 0.640048 68.818 0.730698 70.8514L2.22921 70.7846L3.72772 70.7178C3.63943 68.7374 3.60312 66.7376 3.61231 64.7299L2.11232 64.723ZM2.67199 76.8313L1.18002 76.9863C1.39492 79.0546 1.67562 81.0947 2.03036 83.0928L3.50726 82.8306L4.98417 82.5684C4.64319 80.6477 4.3721 78.6796 4.16396 76.6763L2.67199 76.8313ZM4.82594 88.7519L3.37871 89.1463C3.93398 91.1841 4.58534 93.1602 5.34369 95.0564L6.73645 94.4994L8.1292 93.9424C7.41754 92.1629 6.80148 90.2965 6.27318 88.3576L4.82594 88.7519ZM9.37027 99.9473L8.07297 100.7C8.60458 101.616 9.17036 102.504 9.77202 103.362L10.9999 102.5L12.2277 101.638C11.6776 100.854 11.1579 100.039 10.6676 99.1943L9.37027 99.9473ZM10.9999 102.5L9.77202 103.362C10.4044 104.263 11.0604 105.066 11.7418 105.772L12.8214 104.731L13.901 103.69C13.3402 103.108 12.7817 102.428 12.2277 101.638L10.9999 102.5ZM17.6155 107.774L17.2013 109.215C19.3107 109.821 21.4827 109.731 23.668 109.126L23.2681 107.681L22.8681 106.235C21.1088 106.722 19.5099 106.757 18.0297 106.332L17.6155 107.774ZM28.4775 105.305L29.2609 106.584C30.8378 105.618 32.4412 104.451 34.0681 103.125L33.1207 101.962L32.1733 100.799C30.6221 102.063 29.1291 103.147 27.694 104.026L28.4775 105.305ZM37.4329 98.1539L38.4623 99.245C39.8146 97.9691 41.1891 96.6062 42.5843 95.1756L41.5104 94.1283L40.4366 93.081C39.0633 94.4891 37.719 95.8218 36.4035 97.0629L37.4329 98.1539ZM45.4757 89.955L46.5741 90.9765C47.8533 89.6011 49.1504 88.1834 50.4641 86.7373L49.3538 85.7287L48.2435 84.7202C46.9342 86.1614 45.6456 87.5697 44.3773 88.9334L45.4757 89.955ZM53.2021 81.4746L54.3152 82.48C55.5845 81.0748 56.8679 79.655 58.1665 78.2299L57.0577 77.2196L55.949 76.2093C54.6456 77.6397 53.3583 79.0638 52.0889 80.4693L53.2021 81.4746ZM60.947 72.9937L62.0445 74.0161C63.3413 72.624 64.6513 71.2376 65.9743 69.8663L64.8948 68.8248L63.8153 67.7833C62.4779 69.1695 61.1557 70.5689 59.8494 71.9712L60.947 72.9937ZM68.9279 64.7403L69.9817 65.8078C71.3408 64.4661 72.7122 63.1503 74.0955 61.87L73.0766 60.7691L72.0577 59.6683C70.6479 60.9731 69.2532 62.3114 67.8742 63.6728L68.9279 64.7403ZM77.368 56.9527L78.3404 58.0948C79.7962 56.8552 81.2634 55.6652 82.7416 54.5353L81.8306 53.3436L80.9197 52.1519C79.3953 53.3171 77.887 54.5407 76.3955 55.8106L77.368 56.9527ZM86.4938 50.0106L87.3231 51.2605C88.9134 50.2053 90.5137 49.2311 92.1236 48.35L91.4035 47.0341L90.6833 45.7183C88.9913 46.6444 87.3182 47.6634 85.6645 48.7607L86.4938 50.0106ZM96.5758 44.5418L97.1504 45.9274C98.8859 45.2076 100.63 44.6084 102.382 44.1434L101.997 42.6936L101.612 41.2438C99.7196 41.746 97.849 42.3898 96.0011 43.1562L96.5758 44.5418ZM107.634 41.6596L107.783 43.1522C108.692 43.0616 109.603 43.0101 110.517 42.9996L110.5 41.4997L110.483 39.9998C109.479 40.0113 108.48 40.0679 107.485 40.167L107.634 41.6596ZM110.5 41.4997L110.517 42.9996C111.512 42.9882 112.484 43.0006 113.435 43.0359L113.49 41.5369L113.546 40.0379C112.545 40.0008 111.525 39.9878 110.483 39.9998L110.5 41.4997ZM119.402 42.0752L119.181 43.5589C121.152 43.8523 123.016 44.2559 124.778 44.7591L125.19 43.3167L125.602 41.8744C123.71 41.334 121.718 40.9034 119.623 40.5916L119.402 42.0752ZM130.763 45.3625L130.14 46.7271C131.917 47.5381 133.57 48.467 135.107 49.4996L135.944 48.2544L136.78 47.0092C135.107 45.8854 133.311 44.8767 131.386 43.998L130.763 45.3625ZM140.576 51.9592L139.545 53.0492C140.933 54.3611 142.202 55.7767 143.361 57.2806L144.549 56.3653L145.737 55.45C144.488 53.8276 143.114 52.2942 141.606 50.8691L140.576 51.9592ZM147.823 61.3153L146.518 62.0547C147.457 63.7122 148.293 65.4418 149.034 67.2276L150.42 66.6527L151.805 66.0778C151.021 64.1874 150.131 62.3473 149.128 60.576L147.823 61.3153ZM152.398 72.2504L150.96 72.6776C151.508 74.5233 151.971 76.4062 152.355 78.3109L153.826 78.0144L155.296 77.7179C154.895 75.7314 154.411 73.7609 153.836 71.8232L152.398 72.2504ZM154.766 83.8786L153.277 84.059C153.511 85.9979 153.674 87.9412 153.772 89.8726L155.27 89.7969L156.768 89.7212C156.667 87.7237 156.499 85.7104 156.255 83.6981L154.766 83.8786ZM155.375 95.7366L153.876 95.7153C153.847 97.7016 153.756 99.655 153.61 101.557L155.106 101.671L156.601 101.786C156.752 99.8239 156.846 97.8081 156.875 95.7579L155.375 95.7366ZM154.465 107.573L152.979 107.364C152.841 108.346 152.688 109.305 152.523 110.239L154 110.5L155.478 110.76C155.648 109.793 155.806 108.799 155.95 107.783L154.465 107.573ZM154 110.5L152.523 110.239C152.377 111.066 152.176 111.939 151.921 112.855L153.366 113.257L154.812 113.658C155.089 112.663 155.313 111.695 155.478 110.76L154 110.5ZM151.489 118.621L150.102 118.05C149.437 119.665 148.662 121.356 147.79 123.107L149.133 123.776L150.476 124.444C151.374 122.639 152.179 120.883 152.876 119.192L151.489 118.621ZM146.475 128.795L145.166 128.063C144.276 129.654 143.326 131.279 142.326 132.928L143.608 133.706L144.891 134.484C145.907 132.808 146.875 131.153 147.784 129.527L146.475 128.795ZM140.592 138.523L139.331 137.71C138.326 139.269 137.285 140.842 136.218 142.42L137.46 143.261L138.702 144.101C139.781 142.506 140.834 140.915 141.853 139.335L140.592 138.523ZM134.23 147.94L133.003 147.077C131.922 148.615 130.822 150.151 129.71 151.679L130.924 152.561L132.137 153.443C133.257 151.903 134.366 150.354 135.457 148.803L134.23 147.94ZM127.55 157.135L126.348 156.237C125.211 157.758 124.069 159.264 122.93 160.749L124.12 161.662L125.311 162.575C126.456 161.081 127.605 159.565 128.751 158.033L127.55 157.135ZM120.635 166.155L119.455 165.23C118.267 166.745 117.09 168.229 115.934 169.674L117.105 170.612L118.276 171.549C119.438 170.097 120.621 168.605 121.816 167.081L120.635 166.155ZM113.539 175.026L112.376 174.079C111.132 175.604 109.926 177.069 108.769 178.463L109.923 179.421L111.077 180.379C112.239 178.979 113.451 177.507 114.701 175.974L113.539 175.026ZM106.27 183.784L105.124 182.816C103.781 184.406 102.546 185.854 101.445 187.134L102.582 188.112L103.719 189.09C104.826 187.803 106.067 186.349 107.416 184.752L106.27 183.784ZM98.8529 192.406L97.7257 191.417C97.1341 192.091 96.6729 192.612 96.36 192.964C96.2035 193.14 96.0841 193.274 96.004 193.364C95.964 193.409 95.9338 193.442 95.9137 193.465C95.9037 193.476 95.8962 193.484 95.8912 193.49C95.8887 193.493 95.8869 193.495 95.8857 193.496C95.8851 193.497 95.8847 193.497 95.8844 193.498C95.8843 193.498 95.8842 193.498 95.8841 193.498C95.8841 193.498 95.8841 193.498 95.8841 193.498C95.884 193.498 95.8841 193.498 95.884 193.498C95.8841 193.498 95.8841 193.498 97.0004 194.5C98.1168 195.502 98.1168 195.502 98.1168 195.502C98.1168 195.502 98.1168 195.502 98.1169 195.502C98.1169 195.502 98.1169 195.502 98.117 195.501C98.1171 195.501 98.1172 195.501 98.1174 195.501C98.1178 195.501 98.1183 195.5 98.119 195.499C98.1204 195.498 98.1225 195.495 98.1252 195.492C98.1305 195.486 98.1385 195.478 98.1489 195.466C98.1699 195.442 98.2009 195.408 98.2418 195.362C98.3236 195.27 98.4447 195.134 98.603 194.956C98.9195 194.6 99.3845 194.074 99.98 193.396L98.8529 192.406ZM95.5026 194.581C95.5473 195.408 96.2542 196.042 97.0814 195.998L110.562 195.269C111.389 195.224 112.023 194.517 111.979 193.69C111.934 192.863 111.227 192.229 110.4 192.273L98.4173 192.921L97.7696 180.939C97.7249 180.111 97.018 179.477 96.1908 179.522C95.3636 179.566 94.7292 180.273 94.774 181.1L95.5026 194.581ZM5.65562 2.0469C2.36782 4.99845 2.09524 10.0564 5.04678 13.3442C7.99832 16.632 13.0563 16.9046 16.3441 13.9531C19.6319 11.0015 19.9045 5.94353 16.9529 2.65574C14.0014 -0.632053 8.94341 -0.904639 5.65562 2.0469ZM10.9999 102.5L9.77202 103.362L10.9999 102.5ZM110.5 41.4997L110.517 42.9996L110.5 41.4997ZM10.9999 7.99998C9.56432 7.56497 9.56431 7.565 9.5643 7.56505C9.56429 7.56506 9.56428 7.56511 9.56427 7.56515C9.56424 7.56523 9.56421 7.56533 9.56418 7.56544C9.56412 7.56565 9.56403 7.56594 9.56392 7.56629C9.56371 7.56698 9.56343 7.56793 9.56306 7.56913C9.56234 7.57152 9.56131 7.57493 9.55998 7.57935C9.55732 7.58817 9.55346 7.60101 9.54842 7.61782C9.53836 7.65142 9.52359 7.70089 9.50437 7.76582C9.46593 7.89567 9.40964 8.08738 9.33735 8.33774C9.1928 8.83843 8.98425 9.57381 8.72657 10.5183L10.1737 10.9131L11.6208 11.3079C11.8744 10.3785 12.0789 9.65728 12.2196 9.1699C12.29 8.92621 12.3444 8.741 12.381 8.61745C12.3992 8.55567 12.4131 8.50931 12.4222 8.47877C12.4268 8.4635 12.4302 8.45218 12.4324 8.44487C12.4335 8.44121 12.4343 8.43856 12.4348 8.43691C12.4351 8.43608 12.4352 8.43551 12.4353 8.43519C12.4354 8.43503 12.4354 8.43494 12.4354 8.4349C12.4354 8.43489 12.4354 8.43489 12.4354 8.4349C12.4354 8.43491 12.4354 8.43493 12.4354 8.43494C12.4354 8.43496 12.4354 8.43499 10.9999 7.99998ZM8.66462 16.7676L7.20741 16.4119C6.7762 18.1784 6.3108 20.1682 5.83375 22.3424L7.2989 22.6639L8.76405 22.9854C9.2357 20.8357 9.69575 18.8688 10.1218 17.1233L8.66462 16.7676ZM6.06764 28.6036L4.59541 28.3163C4.22144 30.2326 3.85203 32.2408 3.49785 34.3227L4.97661 34.5742L6.45536 34.8258C6.80521 32.7694 7.17021 30.785 7.53986 28.8909L6.06764 28.6036ZM4.03548 40.5696L2.5507 40.3565C2.26729 42.3312 2.00406 44.3518 1.7687 46.4048L3.25894 46.5757L4.74918 46.7465C4.98108 44.7235 5.24062 42.7313 5.52027 40.7827L4.03548 40.5696ZM2.66186 52.6137L1.16695 52.4903C1.00027 54.5095 0.866117 56.5474 0.771382 58.5924L2.26977 58.6618L3.76817 58.7312C3.86112 56.7249 3.99285 54.723 4.15678 52.7371L2.66186 52.6137ZM2.11232 64.723L0.612337 64.7161C0.602947 66.7689 0.640048 68.818 0.730698 70.8514L2.22921 70.7846L3.72772 70.7178C3.63943 68.7374 3.60312 66.7376 3.61231 64.7299L2.11232 64.723ZM2.67199 76.8313L1.18002 76.9863C1.39492 79.0546 1.67562 81.0947 2.03036 83.0928L3.50726 82.8306L4.98417 82.5684C4.64319 80.6477 4.3721 78.6796 4.16396 76.6763L2.67199 76.8313ZM4.82594 88.7519L3.37871 89.1463C3.93398 91.1841 4.58534 93.1602 5.34369 95.0564L6.73645 94.4994L8.1292 93.9424C7.41754 92.1629 6.80148 90.2965 6.27318 88.3576L4.82594 88.7519ZM9.37027 99.9473L8.07297 100.7C8.60458 101.616 9.17036 102.504 9.77202 103.362L10.9999 102.5L12.2277 101.638C11.6776 100.854 11.1579 100.039 10.6676 99.1943L9.37027 99.9473ZM10.9999 102.5L9.77202 103.362C10.4044 104.263 11.0604 105.066 11.7418 105.772L12.8214 104.731L13.901 103.69C13.3402 103.108 12.7817 102.428 12.2277 101.638L10.9999 102.5ZM17.6155 107.774L17.2013 109.215C19.3107 109.821 21.4827 109.731 23.668 109.126L23.2681 107.681L22.8681 106.235C21.1088 106.722 19.5099 106.757 18.0297 106.332L17.6155 107.774ZM28.4775 105.305L29.2609 106.584C30.8378 105.618 32.4412 104.451 34.0681 103.125L33.1207 101.962L32.1733 100.799C30.6221 102.063 29.1291 103.147 27.694 104.026L28.4775 105.305ZM37.4329 98.1539L38.4623 99.245C39.8146 97.9691 41.1891 96.6062 42.5843 95.1756L41.5104 94.1283L40.4366 93.081C39.0633 94.4891 37.719 95.8218 36.4035 97.0629L37.4329 98.1539ZM45.4757 89.955L46.5741 90.9765C47.8533 89.6011 49.1504 88.1834 50.4641 86.7373L49.3538 85.7287L48.2435 84.7202C46.9342 86.1614 45.6456 87.5697 44.3773 88.9334L45.4757 89.955ZM53.2021 81.4746L54.3152 82.48C55.5845 81.0748 56.8679 79.655 58.1665 78.2299L57.0577 77.2196L55.949 76.2093C54.6456 77.6397 53.3583 79.0638 52.0889 80.4693L53.2021 81.4746ZM60.947 72.9937L62.0445 74.0161C63.3413 72.624 64.6513 71.2376 65.9743 69.8663L64.8948 68.8248L63.8153 67.7833C62.4779 69.1695 61.1557 70.5689 59.8494 71.9712L60.947 72.9937ZM68.9279 64.7403L69.9817 65.8078C71.3408 64.4661 72.7122 63.1503 74.0955 61.87L73.0766 60.7691L72.0577 59.6683C70.6479 60.9731 69.2532 62.3114 67.8742 63.6728L68.9279 64.7403ZM77.368 56.9527L78.3404 58.0948C79.7962 56.8552 81.2634 55.6652 82.7416 54.5353L81.8306 53.3436L80.9197 52.1519C79.3953 53.3171 77.887 54.5407 76.3955 55.8106L77.368 56.9527ZM86.4938 50.0106L87.3231 51.2605C88.9134 50.2053 90.5137 49.2311 92.1236 48.35L91.4035 47.0341L90.6833 45.7183C88.9913 46.6444 87.3182 47.6634 85.6645 48.7607L86.4938 50.0106ZM96.5758 44.5418L97.1504 45.9274C98.8859 45.2076 100.63 44.6084 102.382 44.1434L101.997 42.6936L101.612 41.2438C99.7196 41.746 97.849 42.3898 96.0011 43.1562L96.5758 44.5418ZM107.634 41.6596L107.783 43.1522C108.692 43.0616 109.603 43.0101 110.517 42.9996L110.5 41.4997L110.483 39.9998C109.479 40.0113 108.48 40.0679 107.485 40.167L107.634 41.6596ZM110.5 41.4997L110.517 42.9996C111.512 42.9882 112.484 43.0006 113.435 43.0359L113.49 41.5369L113.546 40.0379C112.545 40.0008 111.525 39.9878 110.483 39.9998L110.5 41.4997ZM119.402 42.0752L119.181 43.5589C121.152 43.8523 123.016 44.2559 124.778 44.7591L125.19 43.3167L125.602 41.8744C123.71 41.334 121.718 40.9034 119.623 40.5916L119.402 42.0752ZM130.763 45.3625L130.14 46.7271C131.917 47.5381 133.57 48.467 135.107 49.4996L135.944 48.2544L136.78 47.0092C135.107 45.8854 133.311 44.8767 131.386 43.998L130.763 45.3625ZM140.576 51.9592L139.545 53.0492C140.933 54.3611 142.202 55.7767 143.361 57.2806L144.549 56.3653L145.737 55.45C144.488 53.8276 143.114 52.2942 141.606 50.8691L140.576 51.9592ZM147.823 61.3153L146.518 62.0547C147.457 63.7122 148.293 65.4418 149.034 67.2276L150.42 66.6527L151.805 66.0778C151.021 64.1874 150.131 62.3473 149.128 60.576L147.823 61.3153ZM152.398 72.2504L150.96 72.6776C151.508 74.5233 151.971 76.4062 152.355 78.3109L153.826 78.0144L155.296 77.7179C154.895 75.7314 154.411 73.7609 153.836 71.8232L152.398 72.2504ZM154.766 83.8786L153.277 84.059C153.511 85.9979 153.674 87.9412 153.772 89.8726L155.27 89.7969L156.768 89.7212C156.667 87.7237 156.499 85.7104 156.255 83.6981L154.766 83.8786ZM155.375 95.7366L153.876 95.7153C153.847 97.7016 153.756 99.655 153.61 101.557L155.106 101.671L156.601 101.786C156.752 99.8239 156.846 97.8081 156.875 95.7579L155.375 95.7366ZM154.465 107.573L152.979 107.364C152.841 108.346 152.688 109.305 152.523 110.239L154 110.5L155.478 110.76C155.648 109.793 155.806 108.799 155.95 107.783L154.465 107.573ZM154 110.5L152.523 110.239C152.377 111.066 152.176 111.939 151.921 112.855L153.366 113.257L154.812 113.658C155.089 112.663 155.313 111.695 155.478 110.76L154 110.5ZM151.489 118.621L150.102 118.05C149.437 119.665 148.662 121.356 147.79 123.107L149.133 123.776L150.476 124.444C151.374 122.639 152.179 120.883 152.876 119.192L151.489 118.621ZM146.475 128.795L145.166 128.063C144.276 129.654 143.326 131.279 142.326 132.928L143.608 133.706L144.891 134.484C145.907 132.808 146.875 131.153 147.784 129.527L146.475 128.795ZM140.592 138.523L139.331 137.71C138.326 139.269 137.285 140.842 136.218 142.42L137.46 143.261L138.702 144.101C139.781 142.506 140.834 140.915 141.853 139.335L140.592 138.523ZM134.23 147.94L133.003 147.077C131.922 148.615 130.822 150.151 129.71 151.679L130.924 152.561L132.137 153.443C133.257 151.903 134.366 150.354 135.457 148.803L134.23 147.94ZM127.55 157.135L126.348 156.237C125.211 157.758 124.069 159.264 122.93 160.749L124.12 161.662L125.311 162.575C126.456 161.081 127.605 159.565 128.751 158.033L127.55 157.135ZM120.635 166.155L119.455 165.23C118.267 166.745 117.09 168.229 115.934 169.674L117.105 170.612L118.276 171.549C119.438 170.097 120.621 168.605 121.816 167.081L120.635 166.155ZM113.539 175.026L112.376 174.079C111.132 175.604 109.926 177.069 108.769 178.463L109.923 179.421L111.077 180.379C112.239 178.979 113.451 177.507 114.701 175.974L113.539 175.026ZM106.27 183.784L105.124 182.816C103.781 184.406 102.546 185.854 101.445 187.134L102.582 188.112L103.719 189.09C104.826 187.803 106.067 186.349 107.416 184.752L106.27 183.784ZM98.8529 192.406L97.7257 191.417C97.1341 192.091 96.6729 192.612 96.36 192.964C96.2035 193.14 96.0841 193.274 96.004 193.364C95.964 193.409 95.9338 193.442 95.9137 193.465C95.9037 193.476 95.8962 193.484 95.8912 193.49C95.8887 193.493 95.8869 193.495 95.8857 193.496C95.8851 193.497 95.8847 193.497 95.8844 193.498C95.8843 193.498 95.8842 193.498 95.8841 193.498C95.8841 193.498 95.8841 193.498 95.8841 193.498C95.884 193.498 95.8841 193.498 95.884 193.498C95.8841 193.498 95.8841 193.498 97.0004 194.5C98.1168 195.502 98.1168 195.502 98.1168 195.502C98.1168 195.502 98.1168 195.502 98.1169 195.502C98.1169 195.502 98.1169 195.502 98.117 195.501C98.1171 195.501 98.1172 195.501 98.1174 195.501C98.1178 195.501 98.1183 195.5 98.119 195.499C98.1204 195.498 98.1225 195.495 98.1252 195.492C98.1305 195.486 98.1385 195.478 98.1489 195.466C98.1699 195.442 98.2009 195.408 98.2418 195.362C98.3236 195.27 98.4447 195.134 98.603 194.956C98.9195 194.6 99.3845 194.074 99.98 193.396L98.8529 192.406Z" fill="white"/>
</svg>
