<svg width="1293" height="80" viewBox="0 0 1293 80" fill="none" xmlns="http://www.w3.org/2000/svg">
<g clip-path="url(#clip0_87_1151)">
<path d="M1293 47.5305L1262.2 42.7514C1231.4 38.1511 1169.99 28.3251 1108.03 21.3129C1046.7 14.0327 985.015 9.56633 923.956 23.7247C862 38.1511 800.044 71.2022 738.985 78.4824C677.299 85.4946 615.971 66.7358 554.015 52.3095C492.597 38.1511 431 28.3251 369.044 26.0919C307.896 23.8587 246.029 28.3251 184.971 38.0171C123.104 47.5305 61.9563 61.8228 30.5292 68.969L0 76.1152V0H30.7986C61.5972 0 123.015 0 184.971 0C246.299 0 307.985 0 369.044 0C431 0 492.956 0 554.015 0C615.701 0 677.029 0 738.985 0C800.403 0 862 0 923.956 0C985.104 0 1046.97 0 1108.03 0C1169.9 0 1231.04 0 1262.47 0H1293V47.5305Z" fill="#383560"/>
</g>
<defs>
<clipPath id="clip0_87_1151">
<rect width="1293" height="80" fill="white" transform="matrix(-1 0 0 -1 1293 80)"/>
</clipPath>
</defs>
</svg>
